<svg xmlns="http://www.w3.org/2000/svg" viewBox="0 0 229.08 191.68"><defs><style>.cls-1{fill:#f37575;}.cls-1,.cls-2,.cls-3,.cls-4{stroke:#000;stroke-miterlimit:10;}.cls-2{fill:#91d5dd;fill-rule:evenodd;}.cls-3{fill:#fed4ac;}.cls-4{fill:none;}</style></defs><title>icon-2</title><g id="Layer_2" data-name="Layer 2"><g id="_2_icon" data-name="2 icon"><path id="Body" class="cls-1" d="M7,119c-3.62,4.1-9.6,15.46-4.49,28.13a85,85,0,0,0,11.82,18c8,9.45,19.85,27.65,33.33,26s23.4-7.8,35.69-32.62c.56-2.05,2.18-6.24,4.26-6.62,2.6-.47,5.2-1.89,0-2.37a16.13,16.13,0,0,1,12.53-6.61c7.17-1.58,21.08-7.52,19.38-18.68-.47-1.5-2.41-4.11-6.38-2.6-5,1.89-12.06,5.44-16.08-1.18s4.26-11.59,7.33-14a2.23,2.23,0,0,0,.71-2.13c-3.95,3-11.42,8.62-14.42,11.05,2.46,15.46,14.11,14.21,19.62,11.65,2-1.18,5.91-3,5.91-1,0,2.6-7.8,11.11-19.15,12.53-9.07,1.13-15.28,9.77-17.25,14-9.69,20.8-15.13,25-18.44,24.58-2.65-.38-2.52-3.78-2.13-5.44,3.08-21.74-12.53-23.16-19.38-38.05-5.49-11.92,6.85-18.84,13.71-20.81,20.8-5,22.69-13.71,27.18-18,3.6-3.41,5.28,1.63,5.68,4.57l8.74-6.7c-4.17.24-11.82-1.47-9-10.16C89.71,71.7,96.8,75.48,94,68.16s-14.65-3.31-21,3.78-13,18-13.47,19.38-6.62,12.53-28.13,15.13C26.12,107.32,14,111,7,119Z"/><path id="_3_cover" data-name="3 cover" class="cls-1" d="M49.76,128.91c-.95-1.89,1-2.84,2.12-3.07,1-.38,2,.63,2.37,1.18L59,135.76c1.1,1.42,2.88,4.54,1.18,5.68a3.15,3.15,0,0,1-3.78,0C54.56,138.05,50.7,130.8,49.76,128.91Z"/><path id="_2_cover" data-name="2 cover" class="cls-1" d="M61.81,122.05c-1.13-1.51-1.42-3.31-.47-4.25a2.64,2.64,0,0,1,2.29-.42,3.3,3.3,0,0,1,1.68,1.29l7.64,10a2.17,2.17,0,0,1,.6,2c-.61,1.6-3.34,1.79-3.94,1C67.56,129.07,63,123.57,61.81,122.05Z"/><path id="_1_cover" data-name="1 cover" class="cls-1" d="M73.63,107.4c-.94.94-.66,2.74.47,4.25s5.76,7,7.81,9.69c.59.78,3.32.59,3.93-1a2.2,2.2,0,0,0-.6-2l-7.63-10A3.34,3.34,0,0,0,75.93,107,2.62,2.62,0,0,0,73.63,107.4Z"/><path id="Additional" class="cls-2" d="M80.72,109.29c-2.08-2.65-1.34-4.41-.71-5l6.39-4.88c-.4-2.94-2.08-8-5.68-4.57-4.49,4.25-6.38,13-27.18,18-6.86,2-19.2,8.89-13.71,20.81,6.85,14.89,22.46,16.31,19.38,38.05-.39,1.66-.52,5.06,2.13,5.44,3.31.47,8.75-3.78,18.44-24.58,2-4.18,8.18-12.82,17.25-14,11.35-1.42,19.15-9.93,19.15-12.53,0-2.08-3.94-.23-5.91,1-5.51,2.56-17.16,3.81-19.62-11.65-.58.47-1,.82-1.18,1-1.13,1.13-2.44,0-3.07-.47C85.45,114.65,82.8,111.94,80.72,109.29Zm-6.62,2.36c-1.13-1.51-1.41-3.31-.47-4.25a2.62,2.62,0,0,1,2.3-.42,3.34,3.34,0,0,1,1.68,1.29l7.63,10a2.2,2.2,0,0,1,.6,2c-.61,1.6-3.34,1.79-3.93,1C79.86,118.66,75.24,113.16,74.1,111.65Zm-12.29,10.4c-1.13-1.51-1.42-3.31-.47-4.25a2.64,2.64,0,0,1,2.29-.42,3.3,3.3,0,0,1,1.68,1.29l7.64,10a2.17,2.17,0,0,1,.6,2c-.61,1.6-3.34,1.79-3.94,1C67.56,129.07,63,123.57,61.81,122.05Zm-12.05,6.86c-.95-1.89,1-2.84,2.12-3.07,1-.38,2,.63,2.37,1.18L59,135.76c1.1,1.42,2.88,4.54,1.18,5.68a3.15,3.15,0,0,1-3.78,0C54.56,138.05,50.7,130.8,49.76,128.91Z"/><path id="Fingerboard" class="cls-3" d="M105.07,104.32c-.19-1.13,31-26.79,46.57-39.47L185,37.42c3.39-2.83,12-7.56,19.39-3.78a6,6,0,0,0,2.6-2.12c1.18-1.66,13-22.93,17-14.66a10.83,10.83,0,0,0,4.25-11.58c-.94-1.42-4.06-3.83-9-2.13.08-1-.33-3-2.6-2.6-2.84.47-2.13,3.07-1.18,3.54.74.38-1.21,1.09-2.1,1.41h0c-.39-1.34-.47-3.07-3.07-1.89-1.42,1-1.52,2.55,0,3.31l-3.55,1.89c.08-1.26-.38-3.59-2.84-2.84-3.07.95-1.18,4,0,4l-3.54,1.89c.16-1.41-.14-3.92-2.6-2.6s-1,3.08,0,3.79L194,14.49a1.89,1.89,0,0,0-2.6-2.12c-2.26.56-.94,2.44,0,3.31l-3.07,1.42c-.39-1-1.56-2.65-3.07-1.9-1.89.95-.71,3.31-.47,3.31s-.87.79-1.42,1.19c.08,1.81-.29,5.72-2.37,6.85s-58.07,44.6-85.81,66.19l-8.74,6.7L80,104.32c-.63.56-1.37,2.32.71,5s4.73,5.36,5.68,6.62c.63.47,1.94,1.6,3.07.47.19-.19.6-.54,1.18-1C93.65,112.94,101.12,107.29,105.07,104.32Z"/><path id="Stroke" class="cls-4" d="M105.07,104.32a2.23,2.23,0,0,1-.71,2.13c-3.07,2.36-11.34,7.33-7.33,14s11.11,3.07,16.08,1.18c4-1.51,5.91,1.1,6.38,2.6,1.7,11.16-12.21,17.1-19.38,18.68a16.13,16.13,0,0,0-12.53,6.61c5.2.48,2.6,1.9,0,2.37-2.08.38-3.7,4.57-4.26,6.62-12.29,24.82-22.22,31-35.69,32.62s-25.29-16.55-33.33-26a85,85,0,0,1-11.82-18c-5.11-12.67.87-24,4.49-28.13,7-7.94,19.15-11.66,24.35-12.53C52.83,103.85,59,92.74,59.45,91.32S66.54,79,72.92,71.94s18.2-11.11,21-3.78-4.25,3.54-7.8,14.42c-2.84,8.69,4.81,10.4,9,10.16m9.93,11.58c-.19-1.13,31-26.79,46.57-39.47L185,37.42c3.39-2.83,12-7.56,19.39-3.78a6,6,0,0,0,2.6-2.12c1.18-1.66,13-22.93,17-14.66a10.83,10.83,0,0,0,4.25-11.58c-.94-1.42-4.06-3.83-9-2.13.08-1-.33-3-2.6-2.6-2.84.47-2.13,3.07-1.18,3.54.74.38-1.21,1.09-2.1,1.41m-108.3,98.82c-3.95,3-11.42,8.62-14.42,11.05M213.34,5.51c-.39-1.34-.47-3.07-3.07-1.89-1.42,1-1.52,2.55,0,3.31l-3.55,1.89c.08-1.26-.38-3.59-2.84-2.84-3.07.95-1.18,4,0,4l-3.54,1.89c.16-1.41-.14-3.92-2.6-2.6s-1,3.08,0,3.79L194,14.49a1.89,1.89,0,0,0-2.6-2.12c-2.26.56-.94,2.44,0,3.31l-3.07,1.42c-.39-1-1.56-2.65-3.07-1.9-1.89.95-.71,3.31-.47,3.31s-.87.79-1.42,1.19c.08,1.81-.29,5.72-2.37,6.85s-58.07,44.6-85.81,66.19M213.34,5.51h0m0,0h0M95.14,92.74l-8.74,6.7m0,0L80,104.32c-.63.56-1.37,2.32.71,5s4.73,5.36,5.68,6.62c.63.47,1.94,1.6,3.07.47.19-.19.6-.54,1.18-1M86.4,99.44c-.4-2.94-2.08-8-5.68-4.57-4.49,4.25-6.38,13-27.18,18-6.86,2-19.2,8.89-13.71,20.81,6.85,14.89,22.46,16.31,19.38,38.05-.39,1.66-.52,5.06,2.13,5.44,3.31.47,8.75-3.78,18.44-24.58,2-4.18,8.18-12.82,17.25-14,11.35-1.42,19.15-9.93,19.15-12.53,0-2.08-3.94-.23-5.91,1-5.51,2.56-17.16,3.81-19.62-11.65m-17-8c-.94.94-.66,2.74.47,4.25s5.76,7,7.81,9.69c.59.78,3.32.59,3.93-1a2.2,2.2,0,0,0-.6-2l-7.63-10A3.34,3.34,0,0,0,75.93,107,2.62,2.62,0,0,0,73.63,107.4ZM61.34,117.8c-1,.94-.66,2.74.47,4.25s5.75,7,7.8,9.69c.6.78,3.33.59,3.94-1a2.17,2.17,0,0,0-.6-2l-7.64-10a3.3,3.3,0,0,0-1.68-1.29A2.64,2.64,0,0,0,61.34,117.8Zm-9.46,8c-1.1.23-3.07,1.18-2.12,3.07s4.8,9.14,6.62,12.53a3.15,3.15,0,0,0,3.78,0c1.7-1.14-.08-4.26-1.18-5.68L54.25,127C53.87,126.47,52.87,125.46,51.88,125.84Z"/><path id="Tuner" class="cls-3" d="M35.81,137.18l7.09-5.67c3.55,4.33,10.83,13.19,11.58,14a1.28,1.28,0,0,1,0,1.89L52.59,149c.57.19.87,1.18.95,1.66,5.44.47,28.37.47,28.37,0s3.78-.95,5.67-1.19c5.2.48,1.89,2.13-.71,2.6a29.93,29.93,0,0,1-5,0c-2.08,1-20.89.4-30,0a28,28,0,0,1-2.12,1.9,1.92,1.92,0,0,1-2.37,0c-3.62-4.5-11-13.72-11.58-14.66A1.94,1.94,0,0,1,35.81,137.18Z"/><path id="Strings" d="M43.75,134.53,188,23.67l-.29-.38L43.47,134.16Zm1.42,2.6L194.1,20.83l-.29-.38L44.88,136.76ZM47.54,139,200.25,18l-.3-.37-152.7,121Zm1.66,2.13,157.2-126-.3-.37-157.2,126Zm1.89,2.13,161.45-131-.3-.36-161.45,131Zm1.65,1.89L218,9.48l-.3-.37L52.44,144.8ZM189,22.06a1.18,1.18,0,0,1-1.18,1.18v.47a1.65,1.65,0,0,0,1.65-1.65Zm-1.18,1.18a1.18,1.18,0,0,1-1.18-1.18h-.48a1.65,1.65,0,0,0,1.66,1.65Zm-1.18-1.18a1.18,1.18,0,0,1,1.18-1.18V20.4a1.66,1.66,0,0,0-1.66,1.66Zm1.18-1.18A1.18,1.18,0,0,1,189,22.06h.47a1.66,1.66,0,0,0-1.65-1.66Zm7.33-1.66A1.18,1.18,0,0,1,194,20.4v.48a1.66,1.66,0,0,0,1.66-1.66ZM194,20.4a1.18,1.18,0,0,1-1.18-1.18h-.47A1.65,1.65,0,0,0,194,20.88Zm-1.18-1.18A1.18,1.18,0,0,1,194,18v-.47a1.65,1.65,0,0,0-1.65,1.65ZM194,18a1.18,1.18,0,0,1,1.19,1.18h.47A1.65,1.65,0,0,0,194,17.57Zm7.33-1.65a1.18,1.18,0,0,1-1.18,1.18V18a1.66,1.66,0,0,0,1.66-1.65Zm-1.18,1.18a1.18,1.18,0,0,1-1.18-1.18h-.47A1.65,1.65,0,0,0,200.1,18Zm-1.18-1.18a1.18,1.18,0,0,1,1.18-1.19v-.47a1.65,1.65,0,0,0-1.65,1.66Zm1.18-1.19a1.18,1.18,0,0,1,1.18,1.19h.48a1.66,1.66,0,0,0-1.66-1.66Zm7.33-1.65a1.18,1.18,0,0,1-1.18,1.18v.47a1.65,1.65,0,0,0,1.65-1.65Zm-1.18,1.18a1.18,1.18,0,0,1-1.18-1.18h-.48a1.65,1.65,0,0,0,1.66,1.65Zm-1.18-1.18a1.18,1.18,0,0,1,1.18-1.18v-.48a1.66,1.66,0,0,0-1.66,1.66Zm1.18-1.18a1.18,1.18,0,0,1,1.18,1.18h.47a1.66,1.66,0,0,0-1.65-1.66Zm7.33-1.66a1.18,1.18,0,0,1-1.19,1.18v.48a1.66,1.66,0,0,0,1.66-1.66Zm-1.19,1.18a1.18,1.18,0,0,1-1.18-1.18h-.47a1.65,1.65,0,0,0,1.65,1.66Zm-1.18-1.18a1.18,1.18,0,0,1,1.18-1.18V9.06a1.65,1.65,0,0,0-1.65,1.65Zm1.18-1.18a1.18,1.18,0,0,1,1.19,1.18h.47a1.65,1.65,0,0,0-1.66-1.65Zm7-1.3a1.2,1.2,0,0,1-1.45.84l-.12.45a1.65,1.65,0,0,0,2-1.17Zm-1.45.84a1.18,1.18,0,0,1-.83-1.45l-.46-.12a1.65,1.65,0,0,0,1.17,2Zm-.83-1.45a1.17,1.17,0,0,1,1.44-.84l.13-.45a1.65,1.65,0,0,0-2,1.17Zm1.44-.84a1.19,1.19,0,0,1,.84,1.45l.46.12a1.65,1.65,0,0,0-1.17-2Z"/></g></g></svg>