<svg xmlns="http://www.w3.org/2000/svg" viewBox="0 0 207.85 83"><defs><style>.cls-1{fill:#f37575;}.cls-2,.cls-3,.cls-4{fill:#fed4ac;}.cls-3{fill-rule:evenodd;}.cls-4,.cls-5,.cls-6,.cls-7{stroke:#000;}.cls-4{stroke-miterlimit:10;}.cls-5{fill:none;}.cls-6{fill:#91d5dd;}</style></defs><title>icon-5</title><g id="Layer_2" data-name="Layer 2"><g id="_5_icon" data-name="5 icon"><path id="body" class="cls-1" d="M7.25,71.07C-5.57,47.44,2.65,24.39,9.1,14.62a4.05,4.05,0,0,1,2.07-1.46A24,24,0,0,0,17.3,9.79C19.06,8.37,24.76,8,28.71,7.92,30,7.9,31,7,32.06,6.25A4.66,4.66,0,0,1,34,5.54c.64-4,2.22-5,2.92-5h7.7C48.45.5,49.41,4,49.41,5.81a2,2,0,0,1,.88.19c1,.49,2,1.4,3.15,1.4h8a2.58,2.58,0,0,1,1.33.36L70.08,12a1.27,1.27,0,0,0,.63.17h.46a.79.79,0,0,0,.79-.8,2.12,2.12,0,0,1,2.13-2.12h60a2.65,2.65,0,0,1,2.65,2.65h.87a2.69,2.69,0,0,0,1.35-.37l7.24-4.3a2.7,2.7,0,0,1,1.36-.37h8.31a2.68,2.68,0,0,0,1.43-.42L159.53,5C160,1.4,161.3.5,161.92.5h9.56c1.91,0,2.92,3.36,3.18,5a7.9,7.9,0,0,1,2.68,1.72,2.79,2.79,0,0,0,1.79.67h6.68c3.27,0,8,2.92,10.46,4.78a2.57,2.57,0,0,0,1.55.53,2.14,2.14,0,0,1,1.66.73c2.71,3.31,7.24,12.59,7.82,29,.59,16.59-4.28,25.59-7.31,28.61a2.13,2.13,0,0,1-1.52.58,3.29,3.29,0,0,0-2.11.91c-4,3.49-14,4.4-18.78,4.4L177.15,80a2.64,2.64,0,0,1-2.61,2.21H146.17a2.66,2.66,0,0,1-2-.94L141.36,78a2.5,2.5,0,0,0-1.7-.89c-6.15-.56-20.12-1.56-34.53-1.77A239.46,239.46,0,0,0,69,77.87a2.69,2.69,0,0,0-1.34.63l-.61.55L64,81.82a2.65,2.65,0,0,1-1.77.68h-26c-1.68,0-3.42-1.56-4.22-3-.31-.58-.63-1.1-.88-1.47-10.34.26-17.78-2.92-18.57-4.25-.43-.71-1.78-1.07-3-1.22A3,3,0,0,1,7.25,71.07Z"/><path id="left-button" class="cls-2" d="M49.41,5.81C49.41,4,48.45.5,44.63.5h-7.7c-.7,0-2.28,1-2.92,5Z"/><path id="right-button" class="cls-2" d="M174.66,5.54c-.26-1.68-1.27-5-3.18-5h-9.56c-.62,0-2,.9-2.39,4.51Z"/><path id="middle" class="cls-3" d="M91.6,32.61H84.37a2.65,2.65,0,0,0-1.75.66l-.46.4a2.67,2.67,0,0,0-.91,2v19.7a2.67,2.67,0,0,0,.51,1.56l.82,1.12a2.65,2.65,0,0,0,2.14,1.1h38.79a2.66,2.66,0,0,0,2.06-1l1-1.21a2.64,2.64,0,0,0,.6-1.68V35.77a2.67,2.67,0,0,0-1-2.1l-.65-.5a2.68,2.68,0,0,0-1.63-.56Zm-8.23,4.87a2.67,2.67,0,0,1,1.18-2.21l.54-.36a2.67,2.67,0,0,1,1.47-.44h35.37a2.61,2.61,0,0,1,1.73.64l.18.16a2.64,2.64,0,0,1,.93,2V54a2.64,2.64,0,0,1-.93,2l-.18.16a2.66,2.66,0,0,1-1.73.64H85.87a2.51,2.51,0,0,1-1.92-.9h0a2.51,2.51,0,0,1-.58-1.6Z"/><path id="top" class="cls-4" d="M104.34,10.32H90.7a2.14,2.14,0,0,0-.83.15c-1.19.48-2.37,1.39.07,2.14a2.24,2.24,0,0,0,.68.1h27.27a2.11,2.11,0,0,0,1.4-.46c.76-.65,1.23-1.5-.62-1.67C116.33,10.37,108.14,10.32,104.34,10.32Z"/><path id="Stroke" class="cls-5" d="M31.09,78c-10.34.26-17.78-2.92-18.57-4.25-.43-.71-1.78-1.07-3-1.22M31.09,78l.54-.64a2.65,2.65,0,0,1,2-.95H63.21a2.62,2.62,0,0,1,1.82.73l2,1.92M31.09,78c.25.37.57.89.88,1.47m145.61-2-.52-.63a2.65,2.65,0,0,0-2.06-1l-29.86.24a2.72,2.72,0,0,0-1.36.39L141.36,78m36.22-.53c4.82,0,14.79-.91,18.78-4.4m-18.78,4.4L177.15,80m8.66-72.09h-6.68m6.68,0c3.27,0,8,2.92,10.46,4.78h0M185.81,7.93h-6.68m-1,0-.77-.67m.77.67h1m-1,0h1m-4.47-2.39c-.26-1.68-1.27-5-3.18-5m3.18,5L159.53,5m15.13.53a7.9,7.9,0,0,1,2.68,1.72M171.48.5h-9.56m9.56,0h-9.56m0,0c-.62,0-2,.9-2.39,4.51m0,0-2.26,1.44m-20.56,5.46h0a2.65,2.65,0,0,0-2.65-2.65h0m2.65,2.65c-.6,3.24-5,5.29-7.36,6a2.19,2.19,0,0,1-.68.09H81.25a10.74,10.74,0,0,1-8.92-5.38,1.92,1.92,0,0,1-.17-.39l-.28-.86m64.83.53a2.65,2.65,0,0,0-2.65-2.65m2.65,2.65h.87M49.41,5.81C49.41,4,48.45.5,44.63.5m4.78,5.31L34,5.54m15.4.27a2,2,0,0,1,.88.19M44.63.5h-7.7m7.7,0h-7.7m0,0c-.7,0-2.28,1-2.92,5m0,0a4.66,4.66,0,0,0-1.95.71h0m35,72.79.61-.55m-.61.55L64,81.82M141.36,78h0a2.5,2.5,0,0,0-1.7-.89h0m1.7.89,2.78,3.3M141.36,78a2.5,2.5,0,0,0-1.7-.89m-132.41-6C-5.57,47.44,2.65,24.39,9.1,14.62h0M7.25,71.07a3,3,0,0,0,2.28,1.45M7.25,71.07h0a3,3,0,0,0,2.28,1.45h0m1.64-59.36A24,24,0,0,0,17.3,9.79C19.06,8.37,24.76,8,28.71,7.92M11.17,13.16A4.09,4.09,0,0,0,9.1,14.61m2.07-1.45h0A4.13,4.13,0,0,0,9.1,14.61h0M28.71,7.92h0C30,7.91,31,7,32.05,6.26h0M28.71,7.92A5.17,5.17,0,0,0,31.5,6.64l.55-.38M50.29,6h0c1,.49,2,1.4,3.15,1.4h0M50.29,6a10.33,10.33,0,0,1,1,.54,4.34,4.34,0,0,0,2.18.86m0,0h8m0,0a2.58,2.58,0,0,1,1.33.36M61.43,7.4h0a2.58,2.58,0,0,1,1.33.36h0m0,0L70.08,12m0,0a1.27,1.27,0,0,0,.63.17M70.08,12h0a1.27,1.27,0,0,0,.63.17h0m0,0h0A1.26,1.26,0,0,0,72,10.92h0m-1.25,1.26a1.26,1.26,0,0,0,1.17-.8m.08-.46v-.2m0,.2a1.39,1.39,0,0,1-.08.46m.08-.66a1.46,1.46,0,0,1,1.46-1.46M72,10.72h0a1.46,1.46,0,0,1,1.46-1.46h0m0,0h60.64m3.52,2.65a2.69,2.69,0,0,0,1.35-.37m-1.35.37h0a2.69,2.69,0,0,0,1.35-.37h0m7.24-4.3-7.24,4.3h0m7.24-4.3a2.7,2.7,0,0,1,1.36-.37m-1.36.37h0a2.7,2.7,0,0,1,1.36-.37h0m0,0h8.31m0,0a2.68,2.68,0,0,0,1.43-.42m-1.43.42h0a2.68,2.68,0,0,0,1.43-.42h0m20.07.81a2.79,2.79,0,0,0,1.79.67m18.69,5.31a2.14,2.14,0,0,1,1.66.73m-1.66-.73h0a2.57,2.57,0,0,1-1.55-.53h0m1.55.53a2.57,2.57,0,0,1-1.55-.53m1.55.53h0a2.14,2.14,0,0,1,1.66.73h0m0,0c2.71,3.31,7.24,12.59,7.82,29,.59,16.59-4.28,25.59-7.31,28.61m0,0h0m0,0h0m-1.51.57h0a3.26,3.26,0,0,0-2.1.91h0m2.1-.91a3.24,3.24,0,0,0-2.1.91m2.1-.91a2.14,2.14,0,0,0,1.51-.57m-1.51.57h0a2.12,2.12,0,0,0,1.51-.57h0m-3.62,1.48h0m0,0h0m-19.22,7a2.64,2.64,0,0,1-2.61,2.21M177.15,80h0a2.64,2.64,0,0,1-2.61,2.21h0m0,0H146.17m0,0a2.66,2.66,0,0,1-2-.94m2,.94h0a2.66,2.66,0,0,1-2-.94h0m-4.48-4.19c-6.15-.56-20.12-1.56-34.53-1.77A239.46,239.46,0,0,0,69,77.87m0,0a2.69,2.69,0,0,0-1.34.63M69,77.87h0a2.57,2.57,0,0,0-1.34.63h0M64,81.82a2.65,2.65,0,0,1-1.77.68M64,81.82h0a2.65,2.65,0,0,1-1.77.68h0m0,0h-26m0,0c-1.68,0-3.42-1.56-4.22-3m4.22,3h0c-1.68,0-3.42-1.56-4.22-3h0M9.54,72.52h0m0,0h0M91.6,32.61H84.37a2.65,2.65,0,0,0-1.75.66l-.46.4a2.67,2.67,0,0,0-.91,2v19.7a2.67,2.67,0,0,0,.51,1.56l.82,1.12a2.65,2.65,0,0,0,2.14,1.1h38.79a2.66,2.66,0,0,0,2.06-1l1-1.21a2.64,2.64,0,0,0,.6-1.68V35.77a2.67,2.67,0,0,0-1-2.1l-.65-.5a2.68,2.68,0,0,0-1.63-.56Zm12.74-22.29H90.7a2.14,2.14,0,0,0-.83.15c-1.19.48-2.37,1.39.07,2.14a2.24,2.24,0,0,0,.68.1h27.27a2.11,2.11,0,0,0,1.4-.46c.76-.65,1.23-1.5-.62-1.67C116.33,10.37,108.14,10.32,104.34,10.32Zm19.32,24.79.18.16a2.64,2.64,0,0,1,.93,2V54a2.64,2.64,0,0,1-.93,2l-.18.16a2.66,2.66,0,0,1-1.73.64H85.87a2.51,2.51,0,0,1-1.92-.9h0a2.51,2.51,0,0,1-.58-1.6V37.48a2.67,2.67,0,0,1,1.18-2.21l.54-.36a2.67,2.67,0,0,1,1.47-.44h35.37A2.61,2.61,0,0,1,123.66,35.11Z"/><path id="left-bass" class="cls-6" d="M76.47,44c0,16.84-14.36,30.52-32.11,30.52S12.25,60.86,12.25,44,26.62,13.5,44.36,13.5,76.47,27.18,76.47,44Z"/><path id="right-bass" class="cls-6" d="M195.89,44c0,16.84-14.36,30.52-32.11,30.52S131.67,60.86,131.67,44,146,13.5,163.78,13.5,195.89,27.18,195.89,44Z"/><circle id="left-hole" class="cls-7" cx="46.49" cy="44.55" r="15.66"/><circle id="right-hole" class="cls-7" cx="162.19" cy="44.55" r="15.66"/></g></g></svg>