<svg xmlns="http://www.w3.org/2000/svg" viewBox="0 0 163.31 162.65"><defs><style>.cls-1{fill:#f37575;}.cls-2{fill:#fed4ac;fill-rule:evenodd;}.cls-3{fill:#91d5dd;}.cls-4{stroke:#000;stroke-width:0.25px;}</style></defs><title>icon-6</title><g id="Layer_2" data-name="Layer 2"><g id="_6_icon" data-name="6 icon"><path id="top-hand" class="cls-1" d="M20.33,162.26c-11.75-4.85-18.19-15-19.94-19.43C26.1,114.27,77.71,57.19,78.47,57.31s1-.83,1.09-1.32L92,41.53l5.18-5.11c.76.29.51-.27.3-.59.24-.39.78-1.25,1-1.6a14.46,14.46,0,0,0,.22-3.58l1-1.24c.7-6.43,6.86-14.95,9.86-18.41l-.59-.73,3.36-3.14.44.43,35.42,34.7,7.47,8.49.57.64-2.27,2.34-1.17,1.17-.65-.74c-5.61,6.37-15.36,8.26-19.5,8.33l.51.73a2.62,2.62,0,0,1-2.27,1c-3-.8-3.5,1.39-4.09,1s-.68.15-.73.44l-5,5.26L106.37,83.09c-.76-.29-1,.51-1,1l-.51.58Z"/><path id="bottom-hand" class="cls-1" d="M.39,142.83c1.75,4.46,8.19,14.58,19.94,19.43l84.5-77.64.51-.58c-8.88-7-21.62-20.72-26.87-26.73C77.71,57.19,26.1,114.27.39,142.83Z"/><path id="lines" class="cls-2" d="M79.56,56c0,.49-.33,1.43-1.09,1.32,5.25,6,18,19.77,26.87,26.73,0-.44.27-1.24,1-1A208.36,208.36,0,0,1,79.56,56Zm30-45,42.58,43.16.65.74,1.17-1.17,2.27-2.34-.57-.64-7.47-8.49L112.72,7.56l-.44-.43-3.36,3.14Z"/><path id="top-micro" class="cls-3" d="M163,30.87A30.53,30.53,0,0,0,112.72,7.56l35.42,34.7,7.47,8.49A30.42,30.42,0,0,0,163,30.87Z"/><path id="bottom-micro" class="cls-3" d="M132.59,62.49c4.14-.07,13.89-2,19.5-8.33L109.51,11c-3,3.46-9.16,12-9.86,18.41Z"/><path id="Stroke" class="cls-4" d="M.39,142.83l-.16-.14-.09.1,0,.12Zm19.94,19.43-.08.2.12,0,.1-.09Zm84.5-77.64.15.16h0Zm.51-.58.16.14,0-.06v-.07Zm1-1-.08.19.12,0,.09-.08Zm14.68-12.27.13.16h0Zm5-5.26.16.14,0,0v-.07Zm.73-.44.13-.17h0Zm4.09-1-.05.21h0Zm2.27-1,.16.14.11-.12-.1-.14Zm19-9.06.15-.14h0Zm.65.74-.15.14.15.16.15-.16Zm1.17-1.17.15.15h0Zm2.27-2.34.15.15.14-.14-.13-.15Zm-8-9.13.16-.14h0ZM112.28,7.13l.15-.15-.14-.14-.15.13Zm-3.36,3.14-.14-.15-.14.13.12.15ZM98.7,30.65l-.17-.13,0,.06v.07Zm-1.24,5.18-.18-.11-.08.12.08.11Zm-.3.59.08-.2-.13,0-.09.1ZM92,41.53l-.15-.15h0ZM79.56,56l-.16-.14,0,0V56ZM112.72,7.56l-.15.15h0Zm14.71,57.3.14.17h0ZM.19,142.91C2,147.4,8.44,157.58,20.25,162.46l.16-.4C8.73,157.24,2.32,147.17.59,142.75Zm20.28,19.51L105,84.78l-.29-.31L20.19,162.1ZM105,84.76l.51-.58-.32-.28-.51.58Zm.56-.71a1.46,1.46,0,0,1,.2-.64.49.49,0,0,1,.2-.16.61.61,0,0,1,.34,0l.15-.39a.87.87,0,0,0-.61,0,.81.81,0,0,0-.42.32,1.78,1.78,0,0,0-.28.86Zm1-.8L121.18,71l-.27-.32L106.23,82.93ZM121.2,71l5-5.26-.31-.29-5,5.26Zm5-5.37a.67.67,0,0,1,.15-.34s0,0,.07,0a.33.33,0,0,1,.18.08l.25-.34a.77.77,0,0,0-.44-.16.5.5,0,0,0-.36.16,1.15,1.15,0,0,0-.27.57Zm4.58-1.21a2.85,2.85,0,0,0,2.46-1l-.32-.28a2.42,2.42,0,0,1-2.07.88Zm2.47-1.28-.51-.73-.35.24.51.73Zm-.68-.4a31.77,31.77,0,0,0,9.27-1.81,24.51,24.51,0,0,0,10.39-6.59l-.32-.27a24.23,24.23,0,0,1-10.21,6.46,31.58,31.58,0,0,1-9.14,1.79Zm19.34-8.39.66.73.31-.29-.66-.73Zm1,.73,1.17-1.16-.3-.3-1.16,1.17Zm1.18-1.17,2.26-2.33-.3-.3-2.27,2.34ZM112.14,7l-3.36,3.15.29.3,3.36-3.14Zm-3.38,3.43.58.73.33-.26-.58-.73Zm.59.46A59.88,59.88,0,0,0,103.54,19c-2,3.37-3.75,7.14-4.1,10.4l.42.05c.34-3.17,2-6.87,4-10.23a59,59,0,0,1,5.77-8.06ZM99.48,29.28l-1,1.24.34.26.94-1.25Zm-1,1.37c0,.52,0,1.32,0,2a8.08,8.08,0,0,1-.07,1,2.32,2.32,0,0,1-.05.33.36.36,0,0,1,0,.14l.35.23a.63.63,0,0,0,.11-.28,1.79,1.79,0,0,0,.06-.37c0-.28.06-.62.08-1,0-.73,0-1.54,0-2.07Zm-.19,3.46c-.23.35-.78,1.22-1,1.61l.36.22c.24-.39.78-1.25,1-1.6Zm-1,1.84a1.88,1.88,0,0,1,.14.24.4.4,0,0,1,0,.15s0,0,0,0l0,0h-.08l-.2-.06-.15.39a.91.91,0,0,0,.51.09.36.36,0,0,0,.21-.13.31.31,0,0,0,.08-.21A.82.82,0,0,0,97.8,36a2.14,2.14,0,0,0-.17-.3Zm-.26.32-5.19,5.11.3.3,5.18-5.11Zm-5.2,5.12L79.4,55.85l.32.28L92.14,41.67ZM79.35,56a2,2,0,0,1-.25.79.59.59,0,0,1-.6.34l-.07.41a1,1,0,0,0,1-.53,2.23,2.23,0,0,0,.31-1ZM78.5,57.1h-.1l-.06,0-.07.05-.16.13q-.19.16-.51.48c-.43.42-1,1-1.81,1.85-1.53,1.61-3.71,3.94-6.38,6.83-5.35,5.78-12.68,13.8-20.78,22.71C32.42,107,13.09,128.41.23,142.69l.32.28c12.85-14.28,32.18-35.69,48.39-53.51,8.11-8.92,15.43-16.93,20.78-22.71,2.67-2.89,4.85-5.22,6.38-6.83.77-.8,1.37-1.42,1.79-1.84.22-.2.38-.36.5-.46l.13-.11h0a.2.2,0,0,1-.08,0ZM132.44.55a30.32,30.32,0,0,1,30.32,30.32h.42A30.74,30.74,0,0,0,132.44.13ZM112.86,7.72A30.21,30.21,0,0,1,132.44.55V.13A30.61,30.61,0,0,0,112.58,7.4Zm35.43,34.39L112.87,7.41l-.3.3L148,42.41ZM112.87,7.41,112.43,7l-.3.3.44.43Zm49.89,23.46a30.18,30.18,0,0,1-7.31,19.74l.32.27a30.59,30.59,0,0,0,7.41-20Zm-6.42,20.38-.57-.64-.32.28.57.64Zm-.57-.64-7.47-8.49-.32.28,7.47,8.49ZM99.5,29.55l32.94,33.09.3-.3L99.8,29.26Zm9.86-18.4,42.58,43.16.3-.29L109.66,10.85Zm-31,46.29c5.26,6,18,19.8,26.9,26.76l.26-.33c-8.86-6.94-21.59-20.69-26.84-26.7Zm1.08-1.32a209.55,209.55,0,0,0,26.84,27.13l.27-.32A208.24,208.24,0,0,1,79.73,55.86Zm47.23,9.17a.45.45,0,0,0,.27.1.51.51,0,0,0,.25-.06,2.8,2.8,0,0,0,.43-.3l-.28-.33A1.87,1.87,0,0,1,127,65a.1.1,0,0,1-.06,0l0,0Zm.95-.26a3,3,0,0,1,1.1-.68,3.49,3.49,0,0,1,2.11,0l.11-.41a4,4,0,0,0-2.35,0,3.74,3.74,0,0,0-1.25.75Z"/></g></g></svg>