<svg xmlns="http://www.w3.org/2000/svg" viewBox="0 0 495.14 330.48"><defs><style>.cls-1{fill:#f37575;}.cls-2{fill:#fed4ac;}.cls-3{fill:#91d5dd;}.cls-4{fill:none;}.cls-4,.cls-5{stroke:#000;}</style></defs><title>icon-10</title><g id="Layer_2" data-name="Layer 2"><g id="_10_icon" data-name="10 icon"><path id="_1_red" data-name="1 red" class="cls-1" d="M187.61,181c-33.5,20.83-101.3,62.2-104.5,61a42.81,42.81,0,0,1,10.63,7l21.87-14.5c5.33,0,15.7,2.9,14.5,14.5l-24.75,14.5a52.4,52.4,0,0,1,6.25,22c32-22.83,96.6-68.5,99-68.5a10.89,10.89,0,0,0,4.5-1.37c2.8-25.49-15.17-36-24.5-38A33.9,33.9,0,0,0,187.61,181Z"/><path id="_2_red" data-name="2 red" class="cls-1" d="M325.11,98c-25.67,16.5-78.1,50.1-82.5,52.5-4,2.17-5.34,1.46-10.5,1.85,8.25,1.55,24.83,10.35,25.13,33.15.51-.92,1-1.76,1.37-2.5,23.16-16,71.2-49.1,78-53.5,4-2.6,4.91-2.86,6-2.72,5-4.21,9-10.78,2.5-23.78C339.91,92.58,329.61,95.31,325.11,98Z"/><path id="_3_red" data-name="3 red" class="cls-1" d="M350.61,83.48h-2.5c6.66,2.67,19.7,11.8,18.5,27,12.66-8.67,39.5-27.3,45.5-32.5,7.5-6.5,4.5-1,9-4.5,3-5.5,4.5-12.5-3-22-6-7.6-14.5-4.5-18-2Z"/><path id="_4_red" data-name="4 red" class="cls-1" d="M465.11,11c-25,14-29.5,22-40.5,20.5,7.33,1.33,21.7,7.8,20.5,23,14-9.5,43.1-29.5,47.5-33.5,5.5-5-1.5-13.5-5.5-18a6.45,6.45,0,0,0-8.5-1.5Z"/><path id="_3_round" data-name="3 round" class="cls-2" d="M406.11,44c-1.6.4-4.67,3.83-6,5.5,3.5-2.5,12-5.6,18,2,7.5,9.5,6,16.5,3,22,4.5-3.5,1.5,0,12-4,8.4-3.2,11.5-11.34,12-15,1.2-15.2-13.17-21.67-20.5-23C413.61,30,408.11,43.48,406.11,44Z"/><path id="input" class="cls-2" d="M36.11,263.48c-12.8,5.2-29,26.5-35.5,36.5l22,30c4.4,0,24.83-.67,34.5-1,14-3.5,39.5-36.5,46.5-36,3.2-33.6-18-46.33-29-48.5C72.11,250.48,52.11,257,36.11,263.48Z"/><path id="_1_round" data-name="1 round" class="cls-2" d="M219.11,213c1-1,23.26-9.3,27-12.5,3.5-3,7.91-9.29,11.13-15-.3-22.8-16.88-31.6-25.13-33.15a64,64,0,0,0-8,1.15c-12.19,2.44-25.79,21-28.79,21.5C205.75,178.15,225.11,190.18,219.11,213Z"/><path id="_2_round" data-name="2 round" class="cls-2" d="M348.11,83.48c-15.2-.8-21.67,9.33-23,14.5,4.5-2.67,14.8-5.4,20,5,6.5,13,2.5,19.57-2.5,23.78,1.21.16,2.68.8,9-.78,9.6-2.4,14-11.33,15-15.5C367.81,95.28,354.77,86.15,348.11,83.48Z"/><path class="cls-3" d="M83.11,242c-3.2-1.2-7,1.17-8.5,2.5,11,2.17,32.2,14.9,29,48.5,5.6.4,7.66-4.83,8-7.5a52.4,52.4,0,0,0-6.25-22A53,53,0,0,0,93.74,249,42.81,42.81,0,0,0,83.11,242Z"/><path id="start-hole" class="cls-3" d="M115.61,234.48,93.74,249a53,53,0,0,1,11.62,14.5L130.11,249C131.31,237.38,120.94,234.48,115.61,234.48Z"/><path id="_1_blue" data-name="1 blue" class="cls-3" d="M195.11,175c-1.15-.23-2.9,1.07-4.5,2.62,9.33,2.05,27.3,12.52,24.5,38a18.43,18.43,0,0,0,4-2.63c6-22.8-13.36-34.83-23.79-38A.74.74,0,0,1,195.11,175Z"/><path id="stroke" class="cls-4" d="M74.61,244.48c-2.5,6-22.5,12.5-38.5,19-12.8,5.2-29,26.5-35.5,36.5l22,30c4.4,0,24.83-.67,34.5-1,14-3.5,39.5-36.5,46.5-36m-29-48.5c1.5-1.33,5.3-3.7,8.5-2.5m-8.5,2.5c11,2.17,32.2,14.9,29,48.5m-20.5-51c3.2,1.2,71-40.17,104.5-61a33.9,33.9,0,0,1,3-3.38M83.11,242a42.81,42.81,0,0,1,10.63,7M325.11,98c-25.67,16.5-78.1,50.1-82.5,52.5-4,2.17-5.34,1.46-10.5,1.85m93-54.35c1.33-5.17,7.8-15.3,23-14.5m-23,14.5c4.5-2.67,14.8-5.4,20,5,6.5,13,2.5,19.57-2.5,23.78m5.5-43.28h2.5l49.5-34m-52,34c6.66,2.67,19.7,11.8,18.5,27m33.5-61c1.33-1.67,4.4-5.1,6-5.5,2-.5,7.5-14,18.5-12.5m-24.5,18c3.5-2.5,12-5.6,18,2,7.5,9.5,6,16.5,3,22m3.5-42c11,1.5,15.5-6.5,40.5-20.5l13.5-9.5a6.45,6.45,0,0,1,8.5,1.5c4,4.5,11,13,5.5,18-4.4,4-33.5,24-47.5,33.5m-20.5-23c7.33,1.33,21.7,7.8,20.5,23m0,0c-.5,3.66-3.6,11.8-12,15-10.5,4-7.5.5-12,4m0,0c-4.5,3.5-1.5-2-9,4.5-6,5.2-32.84,23.83-45.5,32.5m0,0c-1,4.17-5.4,13.1-15,15.5-6.32,1.58-7.79.94-9,.78M219.11,213c1-1,23.26-9.3,27-12.5,3.5-3,7.91-9.29,11.13-15M219.11,213a18.43,18.43,0,0,1-4,2.63m4-2.63c6-22.8-13.36-34.83-23.79-38m-83.71,110.5c32-22.83,96.6-68.5,99-68.5a10.89,10.89,0,0,0,4.5-1.37m-103.5,69.87c-.34,2.67-2.4,7.9-8,7.5m8-7.5a52.4,52.4,0,0,0-6.25-22m85.25-85.88c1.6-1.55,3.35-2.85,4.5-2.62a.74.74,0,0,0,.21,0m-4.71,2.62c9.33,2.05,27.3,12.52,24.5,38M195.32,175c3-.48,16.6-19.06,28.79-21.5a64,64,0,0,1,8-1.15m0,0c8.25,1.55,24.83,10.35,25.13,33.15m0,0c.51-.92,1-1.76,1.37-2.5,23.16-16,71.2-49.1,78-53.5,4-2.6,4.91-2.86,6-2.72M93.74,249l21.87-14.5c5.33,0,15.7,2.9,14.5,14.5l-24.75,14.5M93.74,249a53,53,0,0,1,11.62,14.5"/><circle id="_1_hole" data-name="1 hole" class="cls-5" cx="309.61" cy="125.98" r="3.5"/><circle id="_2_hole" data-name="2 hole" class="cls-5" cx="286.61" cy="140.98" r="3.5"/><circle id="_3_hole" data-name="3 hole" class="cls-5" cx="333.61" cy="108.98" r="3.5"/><circle id="_4_hole" data-name="4 hole" class="cls-5" cx="368.61" cy="85.98" r="3.5"/><circle id="_5_hole" data-name="5 hole" class="cls-5" cx="393.61" cy="69.98" r="3.5"/></g></g></svg>