<svg xmlns="http://www.w3.org/2000/svg" viewBox="0 0 786.46 272.07"><defs><style>.cls-1,.cls-2{fill:#f37575;}.cls-2{fill-rule:evenodd;}.cls-3{fill:none;stroke:#000;}.cls-4{fill:#fed4ac;}.cls-5{fill:#91d5dd;}</style></defs><title>icon-9</title><g id="Layer_2" data-name="Layer 2"><g id="_9_icon" data-name="9 icon"><path id="red-horn" class="cls-1" d="M370.75,80.18H529.11c17.78-.71,61.16,6.55,81.22,32.26a79.12,79.12,0,0,1,6.35,9.18c85.12,6.94,110,31.65,109.65,33.77a3.82,3.82,0,0,0,.19,1.42l8.75,12.71a3.19,3.19,0,0,1,.4.75C745,193.84,773.33,189.59,779.3,118c5.93-71.15-10.88-98.55-17.75-109.76l-.26-.41c-5.37-8.76-16.72-3.65-21.72,0-5.43,7.05-10.5,18.71-12.93,25.29a3.34,3.34,0,0,1-1,1.42c-23,19.55-86,28.65-115.36,30.81a3.88,3.88,0,0,0-.9.18c-16,5.07-172.62,11.87-249.6,14.65Z"/><path id="Red-middle" class="cls-2" d="M16.91,115.18a16.21,16.21,0,0,1-2.81,2.43V66.76c2.83,3.65,10.6,11.09,19.07,11.65,8.2.55,214.53,1.36,326.63,1.73l10.95,0H529.11c17.78-.71,61.16,6.55,81.22,32.26a79.12,79.12,0,0,1,6.35,9.18c19.11,32.34,21.39,79.95-6.35,112.16-24.58,28.54-60.38,32.61-84.4,34.38l-74.86,3.17V244.27c10-.07,23.13,0,31.78,0,75.92,0,95.54-18,102-25.9,30-36.37,19.46-72.08-3.34-96.17-3.67-2-29.43-5.18-41.32-6-102.4-9.18-339.34-9.89-378.53-7.42-31.36,2-51.44,29.55-57.56,43.08-10.71,20.37-17.73,65.26,39.9,81.92,30.46,8.81,79.22,10.87,132.23,10.49v27.06l-10,.24c-47.09.23-146.69-5.72-168.44-31.43l-1.46-1.72c-25.95-30.65-32.85-38.8-18.39-92.65a4.24,4.24,0,0,1,.18-.5c4.57-10.25,17-32.1,31.32-39.51-41.38.41-69.73.64-73.09.55C26.16,106,20.45,111.67,16.91,115.18Z"/><path id="stroke" class="cls-3" d="M14.1,66.76c-1.41-.59-4.73-1.2-6.71,1.06-2.45,2.81-13.62,21.29-1,46.81a2.94,2.94,0,0,0,.67.89c1.59,1.43,4.68,3.38,7,2.09m0-50.85c2.83,3.65,10.6,11.09,19.07,11.65,8.2.55,214.53,1.36,326.63,1.73M14.1,66.76v50.85m0,0a16.21,16.21,0,0,0,2.81-2.43c3.54-3.51,9.25-9.14,19.44-8.87,3.36.09,31.71-.14,73.09-.55m334.05-3.69c-90.11,1.05-243.37,2.79-334,3.69m334.05-3.69h1.39m-1.39,0h1.39M581.56,122.2c22.8,24.09,33.36,59.8,3.34,96.17-6.51,7.89-26.13,25.9-102,25.9-8.65,0-21.76-.07-31.78,0M581.56,122.2c-3.67-2-29.43-5.18-41.32-6-102.4-9.18-339.34-9.89-378.53-7.42-31.36,2-51.44,29.55-57.56,43.08-10.71,20.37-17.73,65.26,39.9,81.92,30.46,8.81,79.22,10.87,132.23,10.49M581.56,122.2c-21.63-20.33-93.8-20.61-136.68-20.14m-335.44,3.7C95.15,113.17,82.69,135,78.12,145.27a4.24,4.24,0,0,0-.18.5c-14.46,53.85-7.56,62,18.39,92.65l1.46,1.72c21.75,25.71,121.35,31.66,168.44,31.43l10-.24M359.8,80.14l10.95,0H529.11c17.78-.71,61.16,6.55,81.22,32.26a79.12,79.12,0,0,1,6.35,9.18M359.8,80.14c77-2.78,233.57-9.58,249.6-14.65a3.88,3.88,0,0,1,.9-.18c29.36-2.16,92.31-11.26,115.36-30.81a3.34,3.34,0,0,0,1-1.42c2.43-6.58,7.5-18.24,12.93-25.29M616.68,121.62c19.11,32.34,21.39,79.95-6.35,112.16-24.58,28.54-60.38,32.61-84.4,34.38l-74.86,3.17M616.68,121.62c85.12,6.94,110,31.65,109.65,33.77a3.82,3.82,0,0,0,.19,1.42m13.05-149a23.08,23.08,0,0,1,4.07-4.24c8.82-6.7,27.89-5.65,37.78,37.79S784.24,151.51,768,175.52s-32.84,3.53-34.6-1.41c-1.52-4.25-5.91-13.46-6.88-17.3m13.05-149c5-3.65,16.35-8.76,21.72,0m0,0,.26.41m-.26-.41c.09.13.17.27.26.41m-35,148.61,8.75,12.71a3.19,3.19,0,0,1,.4.75C745,193.84,773.33,189.59,779.3,118c5.93-71.15-10.88-98.55-17.75-109.76M276.28,244.27v27.06m0-27.06c60.4-.43,124.19.34,174.79,0M276.28,271.33H451.07m0-27.06v27.06"/><path id="left-yellow" class="cls-4" d="M14.1,66.76c-1.41-.59-4.73-1.2-6.71,1.06-2.45,2.81-13.62,21.29-1,46.81a2.94,2.94,0,0,0,.67.89c1.59,1.43,4.68,3.38,7,2.09Z"/><path id="middle-yellow" class="cls-4" d="M276.28,244.27v27.06H451.07V244.27C400.47,244.61,336.68,243.84,276.28,244.27Z"/><path id="right-blue" class="cls-5" d="M781.42,41.34c-9.89-43.44-29-44.49-37.78-37.79a23.08,23.08,0,0,0-4.07,4.24c5-3.65,16.35-8.76,21.72,0l.26.41C768.42,19.41,785.23,46.81,779.3,118c-6,71.63-34.28,75.88-43.63,52.31a3.19,3.19,0,0,0-.4-.75l-8.75-12.71c1,3.84,5.36,13.05,6.88,17.3,1.76,4.94,18.36,25.42,34.6,1.41S791.31,84.77,781.42,41.34Z"/></g></g></svg>