<svg xmlns="http://www.w3.org/2000/svg" viewBox="0 0 375.68 381.18"><defs><style>.cls-1{fill:#f37575;}.cls-1,.cls-3{fill-rule:evenodd;}.cls-2{fill:#91d5dd;}.cls-3,.cls-4{fill:#fed4ac;}.cls-5{fill:none;stroke:#000;}</style></defs><title>icon-8</title><g id="Layer_2" data-name="Layer 2"><g id="_8_icon" data-name="8 icon"><path id="body" class="cls-1" d="M67.51,377v-2.88l-.85-.84L60.92,242,15.81,199.22V197c-8.93-8-10.93-11-10.82-11.48l-.34-56.27A14.13,14.13,0,0,1,.54,118.53a2.37,2.37,0,0,1,.06-.41c2.7-10.31,21.12-25,59.13-44.6s94.11-36,107.63-37.85,53.9-17.57,66.06-22.47,29.74-10.65,35.15-12A33.28,33.28,0,0,1,280.23.86L303,7.79l1.35,3.55-3.72,2a2.34,2.34,0,0,1-2.7,1.52L272.45,28.23l27.71,79.42.85-.34,9.63,4.56,11.15-1.52,31.76,14.36a13.89,13.89,0,0,1-1.18,4.06v6.58c-.41,13.79,5.91,21.74,9.12,24,2.65,1.69,8.52,5.34,10.82,6.42a4.77,4.77,0,0,1,2.87,4v30.92l-7.77,1.35-.51-.5-17.23,2.58-3.89,122.28-1.18.5v2.71L337.16,331l-4.73-3.38v-2.37l-1-1.85L327.53,207.5,223.62,223.1v81.55l8.62,7.27v2.7h-.67v14.7a10.39,10.39,0,0,1-2.86.8c1,.37,2.5,1.22,2.86,2.41.5,1.69-3.21,3.38-6.09,2.87-2.29-.4-7.37-5.91-9.63-8.61l-1.69.16V332l-4.22.34c1.41,1.07,4.09,3.62,3.55,5.24-.68,2-7.94,2.87-10.14-1.35a19.75,19.75,0,0,0-4.39-5.92l-1.69.34v4.9a40.73,40.73,0,0,1-5.64.73,8.28,8.28,0,0,1,1.92,2.82c-.17,4.22-9.29,2.87-9.29.85a35.75,35.75,0,0,0-1.69-7.27l-2.52.67-.19,5.24-10.81,1.69L155.7,327.63v-17.4l11.22-2-1.08-76.43-62.35,9.36-1.68,50.17-1,1.19v2.19l-7.94,1.19L90.15,293V291.3l-.85-1.18-1.52-46.63L84.4,244,80.69,375.28l-.85,1V379l-8.79,1.69ZM213.66,224.59l-37.51,5.63.59,76.12,36.92-6.08Zm54.91-194.5,24,75.19-3-.68,1.18,20.79-179.94,22-4.05-11.49-4.23-16.05c0-2.25.85-7,4.23-8.11s20-6.19,27.87-8.62H122.25ZM356.76,180.3v-4.23l-17.06-7.26,1-4.56L76.12,200.15l17.07,12.76v5.23Z"/><path id="board" class="cls-2" d="M289.52,104.6l-.34-6.42c-.45-2.14-2.6-6.38-7.6-6.25-1.11,0-3.71-.14-7.51-.39-17.57-1.17-59.57-4.26-100.46,3.6-29.11,5.6-38.27,7.53-39.69,7.94h.66c-7.88,2.43-24.5,7.54-27.87,8.62s-4.23,5.86-4.23,8.11l4.23,16.05,4.05,11.49,179.94-22Z"/><path class="cls-2" d="M171.25,319.35,167,315.3l-.1-7.1-11.22,2,13.35,12.84,63.19-11.15-8.62-7.27v5.07l-4.9.85-5.06-3.72v-6.59l-36.92,6.08.08,11.32Z"/><path id="Bottom-box" class="cls-2" d="M169.05,340.3l10.81-1.69.19-5.24.15-4.56,6.59-1.18V332c1.58,1.3,4.73,4,4.73,4.23l.11.05a40.73,40.73,0,0,0,5.64-.73v-9.8l6.59-1.52v4.06l1.31.79c1.81,1.07,4.24,2.52,4.77,3.26l4.22-.34v-9.46l6.59-1.18v4.39c2.42,1.24,7.34,3.82,7.61,4.23l.08,0,.27.1a10.39,10.39,0,0,0,2.86-.8v-14.7h.67v-2.7l-63.19,11.15Z"/><path id="Box-left" class="cls-2" d="M155.7,310.23v17.4l13.35,12.67V323.07Z"/><path id="Controls" class="cls-3" d="M.6,118.12c0,.13,0,.26-.06.41A2.37,2.37,0,0,1,.6,118.12ZM228.44,330l.27.1c1,.37,2.5,1.22,2.86,2.41.5,1.69-3.21,3.38-6.09,2.87-2.29-.4-7.37-5.91-9.63-8.61l-1.69.16v-4.39l6.59-1.18v4.39c2.42,1.24,7.34,3.82,7.61,4.23Zm-23.27-.92c1.81,1.07,4.24,2.52,4.77,3.26,1.41,1.07,4.09,3.62,3.55,5.24-.68,2-7.94,2.87-10.14-1.35a19.75,19.75,0,0,0-4.39-5.92l-1.69.34v-4.9l6.59-1.52v4.06Zm-13.65,7.15.11.05a8.28,8.28,0,0,1,1.92,2.82c-.17,4.22-9.29,2.87-9.29.85a35.75,35.75,0,0,0-1.69-7.27l-2.52.67.15-4.56,6.59-1.18V332C188.37,333.32,191.52,336,191.52,336.25Zm-57.6-233.17c-.47.14-.1.11.66,0Z"/><path id="Back-leg" class="cls-4" d="M101.81,291.3l1.68-50.17-11.65,1.75,1,53,7.94-1.19v-2.19Z"/><path id="back-leg-left" class="cls-4" d="M90.15,293l2.7,2.88-1-53-4.06.61,1.52,46.63.85,1.18Z"/><path id="Right-leg" class="cls-4" d="M337.16,331l7.44-1.35V327l1.18-.5,3.89-122.28-14.19,2.13Z"/><path id="Right-leg-left" class="cls-4" d="M327.53,207.5l3.89,115.91,1,1.85v2.37l4.73,3.38L335.48,206.3Z"/><path id="Middle-right-left" class="cls-4" d="M213.66,306.85l5.06,3.72V223.83l-5.06.76v82.26Z"/><path id="Middle-right-right" class="cls-4" d="M218.72,223.83v86.74l4.9-.85V223.1Z"/><path id="Middle-left-right" class="cls-4" d="M171.25,231v88.39l5.57-1.69-.08-11.32-.59-76.12Z"/><path id="Middle-left-left" class="cls-4" d="M167,315.3l4.23,4.05V231l-5.41.81,1.08,76.43Z"/><path id="key1" class="cls-4" d="M76.12,200.15l17.07,12.76v5.23l5.57-.8v-5.78l-16.05-12.3Z"/><path id="key2" class="cls-4" d="M82.71,199.26l16.05,12.3v5.78l5.58-.8v-5l-17.23-12.9Z"/><path id="key3" class="cls-4" d="M104.34,211.56v5l5.24-.75v-4.74L93.7,197.77l-6.59.89Z"/><path id="key4" class="cls-4" d="M109.58,211.05v4.74l5.57-.8V210.2l-16.89-13-4.56.62Z"/><path id="key5" class="cls-4" d="M115.15,210.2V215l5.41-.78v-4.85l-17.74-12.83-4.56.62Z"/><path id="key6" class="cls-4" d="M120.56,209.36v4.85l5.41-.77v-4.59l-17.74-13-5.41.73Z"/><path id="key7" class="cls-4" d="M126,208.85v4.59l5.4-.78V208l-18.08-12.9-5.06.69Z"/><path id="key8" class="cls-4" d="M131.37,208v4.65l5.24-.75v-4.75l-18.42-12.72-4.9.67Z"/><path id="key9" class="cls-4" d="M136.61,207.16v4.75l5.41-.78v-4.81l-18.76-12.56-5.07.68Z"/><path id="key10" class="cls-4" d="M142,206.32v4.81l5.4-.77v-4.72L128.84,193l-5.58.76Z"/><path id="key11" class="cls-4" d="M147.42,205.64v4.72l5.07-.73V205L134,192.29l-5.2.71Z"/><path id="ley12" class="cls-4" d="M152.49,205v4.66l5.42-.78v-4.73l-19.1-12.47-4.77.64Z"/><path id="key13" class="cls-4" d="M157.91,204.12v4.73l5.23-.75v-4.65l-18.76-12.56-5.57.76Z"/><path id="key14" class="cls-4" d="M163.14,203.45v4.65l5.4-.78v-4.38l-18.92-12.76-5.24.71Z"/><path id="Left-right" class="cls-4" d="M71.05,380.68,79.84,379v-2.7l.85-1L84.4,244l-7.6,1.78-9.63,2.27Z"/><path id="left-left" class="cls-4" d="M67.51,374.09V377l3.54,3.71L67.17,248.05,60.92,242l5.74,131.28Z"/><path id="key15" class="cls-4" d="M168.54,202.94v4.38l5.07-.72v-4.68L154,189.58l-4.39.6Z"/><path id="key16" class="cls-4" d="M179,201.25v4.57l5.07-.73v-4.52l-19.6-12.41-4.56.62Z"/><path id="key17" class="cls-4" d="M184.09,200.57v4.52l10.47-1.5v-4.37l-20.95-12.3-4.05.55-5.07.69Z"/><path id="key18" class="cls-4" d="M204.7,197.87v4.26l5.58-.8V197l-20.79-12.25-3.88.53Z"/><path id="key19" class="cls-4" d="M235.28,193.31v4.43l5-.72v-4.39l-19.18-12.15-4.9.67Z"/><path id="key20" class="cls-4" d="M318.92,181.31v4.42l4.73-.68V180.8l-15.38-12.15-5.74.78Z"/><path id="key21" class="cls-4" d="M333.28,179.28v4.39l4.66-.67v-4.22l-13.62-12.31-4.73.64Z"/><path id="key22" class="cls-4" d="M342.74,178.27v4l4.56-.65v-4.4L334,165.16l-4.9.67Z"/><path id="key23" class="cls-4" d="M356.76,180.3v-4.23l-16.05-11.82-3.38.46L352,176.41V181Z"/><path id="key24" class="cls-4" d="M347.3,177.26v4.4L352,181v-4.57l-14.71-11.7-3.38.45Z"/><path id="key25" class="cls-4" d="M337.94,178.78V183l4.8-.69v-4l-13.69-12.44-4.73.64Z"/><path id="key26" class="cls-4" d="M328.38,179.79v4.58l4.9-.7v-4.39l-13.69-12.17-5.4.74Z"/><path id="key27" class="cls-4" d="M323.65,180.8v4.25l4.73-.68v-4.58l-14.19-11.94-5.92.8Z"/><path id="key28" class="cls-4" d="M309.29,183v4.12l4.9-.71v-4.25L298,170.05l-4.9.66Z"/><path id="key29" class="cls-4" d="M304.39,183.51v4.31l4.9-.7V183l-16.22-12.29-5.58.76Z"/><path id="key30" class="cls-4" d="M314.19,182.16v4.25l4.73-.68v-4.42l-16.39-11.88-4.56.62Z"/><path id="key31" class="cls-4" d="M289.86,185.54v4.37l5.07-.73v-4.32l-17.41-12-5.74.78Z"/><path id="key32" class="cls-4" d="M294.93,184.86v4.32l4.73-.68v-4.32l-17.41-12-4.73.64Z"/><path id="key33" class="cls-4" d="M299.66,184.18v4.32l4.73-.68v-4.31l-16.9-12-5.24.71Z"/><path id="key34" class="cls-4" d="M275.5,187.56V192l4.78-.69v-4.39L261.3,175l-4.9.67Z"/><path id="key35" class="cls-4" d="M280.28,186.89v4.39l4.85-.7v-4.37l-18.76-11.87-5.07.68Z"/><path id="key36" class="cls-4" d="M285.13,186.21v4.37l4.73-.67v-4.37L271.78,173.6l-5.41.74Z"/><path id="key37" class="cls-4" d="M250.66,191.28v4.25l4.73-.68V190.6l-18.25-12.3-4.9.67Z"/><path id="key38" class="cls-4" d="M270.43,188.41v4.29l5.07-.73v-4.41l-19.1-11.87-5.74.78Z"/><path id="key39" class="cls-4" d="M265.53,189.25v4.15l4.9-.7v-4.29l-19.77-11.94-4.23.57Z"/><path id="key40" class="cls-4" d="M255.39,190.6v4.25l10.14-1.45v-4.15L246.43,177l-4.39.6-4.9.66Z"/><path id="key41" class="cls-4" d="M240.27,192.63V197l10.39-1.49v-4.25L232.24,179l-6.93.94-4.22.57Z"/><path id="key42" class="cls-4" d="M230.38,194v4.46l4.9-.7v-4.43l-19.09-12.16-4.73.64Z"/><path id="key43" class="cls-4" d="M220.25,195.5v4.4l5.06-.73v-4.51L206.22,182.5l-5.24.71Z"/><path id="key44" class="cls-4" d="M215.18,196.18v4.45l5.07-.73v-4.4L201,183.21l-5.4.73Z"/><path id="key45" class="cls-4" d="M225.31,194.66v4.51l5.07-.73V194l-18.92-12.19-5.24.71Z"/><path id="key46" class="cls-4" d="M210.28,197v4.31l4.9-.7v-4.45l-19.6-12.24-6.09.83Z"/><path id="key47" class="cls-4" d="M199.8,198.38v4.46l4.9-.71v-4.26L185.61,185.3l-6.59.91Z"/><path id="key48" class="cls-4" d="M194.56,199.22v4.37l5.24-.75v-4.46L179,186.21l-5.41.71Z"/><path id="key49" class="cls-4" d="M173.61,201.92v4.68l5.41-.78v-4.57l-19.09-12.47-5.92.8Z"/><path class="cls-5" d="M71.05,380.68,67.51,377v-2.88l-.85-.84L60.92,242M71.05,380.68,79.84,379v-2.7l.85-1L84.4,244M71.05,380.68,67.17,248.05M84.4,244l3.38-.51M84.4,244l-7.6,1.78m290.61-43.69-.51-.5-17.23,2.58m17.74-2.08,7.77-1.35V169.82a4.77,4.77,0,0,0-2.87-4c-2.3-1.08-8.17-4.73-10.82-6.42-3.21-2.26-9.53-10.21-9.12-24v-6.58m15,73.32V181.31m0,20.78V181.31m-15-52.54a13.89,13.89,0,0,0,1.18-4.06m-1.18,4.06-7.6.95m8.78-5-31.76-14.36-11.15,1.52L301,107.31l-.85.34L272.45,28.23,298,14.89a2.34,2.34,0,0,0,2.7-1.52l3.72-2L303,7.79m50.51,116.92L51.29,161.54M303,7.79,280.23.86a33.28,33.28,0,0,0-11.66.34c-5.41,1.35-23,7.1-35.15,12s-52.54,20.61-66.06,22.47S97.75,53.92,59.73,73.52,3.3,107.81.6,118.12M303,7.79,27,143.8l-10-8.11C3.48,127.28.42,121,.54,118.53m.06-.41a2.37,2.37,0,0,0-.06.41m.06-.41c0,.13,0,.26-.06.41M60.92,242,15.81,199.22V197c-8.93-8-10.93-11-10.82-11.48l-.34-56.27A14.13,14.13,0,0,1,.54,118.53M60.92,242l6.25,6.08M289.52,104.6l3,.68-24-75.19-146.32,73h11.67m155.6,1.52-.34-6.42c-.45-2.14-2.6-6.38-7.6-6.25-1.11,0-3.71-.14-7.51-.39-17.57-1.17-59.57-4.26-100.46,3.6-29.11,5.6-38.27,7.53-39.69,7.94m155.6,1.52,1.18,20.79-179.94,22-4.05-11.49m27.87-32.78c-7.88,2.43-24.5,7.54-27.87,8.62s-4.23,5.86-4.23,8.11l4.23,16.05m27.87-32.78h-.66m.66,0c-.76.11-1.13.14-.66,0M327.53,207.5l3.89,115.91,1,1.85v2.37l4.73,3.38M327.53,207.5l8-1.2m-8,1.2L223.62,223.1M337.16,331l7.44-1.35V327l1.18-.5,3.89-122.28M337.16,331,335.48,206.3m14.19-2.13-14.19,2.13M67.17,248.05V217.47a12.55,12.55,0,0,0-6.25-12c-7.27-4.22-10.82-32.44-9.63-38.86m15.88,81.44,9.63-2.27m26.69-4.65-1.68,50.17-1,1.19v2.19l-7.94,1.19m10.64-54.74-11.65,1.75m11.65-1.75,62.35-9.36m-73,64.1L90.15,293V291.3l-.85-1.18-1.52-46.63m5.07,52.38-1-53m-4.06.61,4.06-.61m74-11.11,5.41-.81m-5.41.81,1.08,76.43m4.33,11.15L167,315.3l-.1-7.1m4.33,11.15V231m0,88.39,5.57-1.69-.08-11.32M171.25,231l4.9-.74m0,0,37.51-5.63m-37.51,5.63.59,76.12m42,4.23-5.06-3.72v-6.59m5.06,10.31V223.83m0,86.74,4.9-.85v-5.07m-4.9-80.82,4.9-.73m-4.9.73-5.06.76m10-1.49v81.55m-10-80.06v75.67m-46.74,7.94-11.22,2m0,0v17.4l13.35,12.67M155.7,310.23l13.35,12.84m0,17.23,10.81-1.69.19-5.24m-11,6.93V323.07M186.79,332v-4.39l-6.59,1.18-.15,4.56m6.74-1.35c1.58,1.3,4.73,4,4.73,4.23M186.79,332l-4.22.68m9,3.55s0,0,.11.05m-.11-.05.11.05m12.23-8v-4.06l-6.59,1.52v4.9m6.59-2.36-4.9,2m4.9-2,1.31.79c1.81,1.07,4.24,2.52,4.77,3.26m0,0,4.22-.34V327m-4.22,5.41c1.41,1.07,4.09,3.62,3.55,5.24-.68,2-7.94,2.87-10.14-1.35a19.75,19.75,0,0,0-4.39-5.92m21.79-4.56v-4.39l-6.59,1.18V327m6.59-1.18c2.42,1.24,7.34,3.82,7.61,4.23m-7.61-4.23-4.9,1M228.36,330c0,.08.18.11.35.12m-.35-.12.08,0,.27.1m3.53-18.2v2.7h-.67v14.7a10.39,10.39,0,0,1-2.86.8m3.53-18.2-8.62-7.27m8.62,7.27-63.19,11.15m7.69-16.73,36.92-6.08M182.57,332.7a35.75,35.75,0,0,1,1.69,7.27c0,2,9.12,3.37,9.29-.85a8.28,8.28,0,0,0-1.92-2.82m-9.06-3.6-2.52.67m18.91-3-1.69.34m0,0v4.9a40.73,40.73,0,0,1-5.64.73M214.16,327l1.69-.16m0,0c2.26,2.7,7.34,8.21,9.63,8.61,2.88.51,6.59-1.18,6.09-2.87-.36-1.19-1.89-2-2.86-2.41M51.29,166.61v-5.07m0,5.07-21.12-17m21.12,17,9.63-1.21M5,129.27l25.18,20.31m0-4.76,21.12,16.72M30.17,144.82v4.76m0-4.76,76.54-9M60.92,165.4l283.85-35.68M60.92,165.4a125.29,125.29,0,0,0,1.5,21.15m14.38,25v8.95m0-8.95c0-1.81-2.14-4.26-4.93-7.47m4.93,7.47v8.95m0,25.27V222.71m0,23.07V222.71m268-93a67.67,67.67,0,0,0,2.53,19.49m20.11,24.84v7.26m0-7.26v7.26m0-7.26c0-6.14-1.5-7-7.9-10.6-1.36-.76-2.94-1.66-4.77-2.75-3.55-2.12-5.9-6.5-7.44-11.49M62.42,186.55c.72,4.1,1.76,7.7,3.23,9.8,1.19,1.7,2.43,3.28,3.64,4.73m-6.87-14.53L347.3,149.21M76.8,222.71l290.61-41.4M76.8,222.71v-2.2m0,2.2v-2.2m263.91-56.26,19.43,10.3.85,4.73-4.23,1m-16.05-16.05-3.38.46m3.38-.46,16.05,11.82v4.23m0,0L352,181M69.29,201.08l6.83-.93m-6.83.93c.78.93,1.55,1.82,2.27,2.65m4.56-3.58,17.07,12.76v5.23m-17.07-18,6.59-.89m10.48,18.88L76.8,220.51m16.39-2.37,5.57-.8M71.87,204.09h0m0,0-.31-.36m.31.36h0m0,0-.31-.35m11.15-4.47,16.05,12.3v5.78M82.71,199.26l4.4-.6m11.65,18.68,5.58-.8m0,0v-5l-17.23-12.9m17.23,17.88,5.24-.75M87.11,198.66l6.59-.89m15.88,18v-4.74L93.7,197.77m15.88,18,5.57-.8M93.7,197.77l4.56-.62M115.15,215V210.2l-16.89-13M115.15,215l5.41-.78m-22.3-17.06,4.56-.62m17.74,17.68v-4.85l-17.74-12.83m17.74,17.68,5.41-.77m-23.15-16.91,5.41-.73M126,213.44v-4.59l-17.74-13M126,213.44l5.4-.78M108.23,195.8l5.06-.69m18.08,17.55V208l-18.08-12.9m18.08,17.55,5.24-.75m-23.32-16.8,4.9-.67m18.42,17.47v-4.75l-18.42-12.72m18.42,17.47,5.41-.78m-23.83-16.69,5.07-.68M142,211.13v-4.81l-18.76-12.56M142,211.13l5.4-.77m-24.16-16.6,5.58-.76m18.58,17.36v-4.72L128.84,193m18.58,17.36,5.07-.73M128.84,193l5.2-.71m18.45,17.34V205L134,192.29m18.45,17.34,5.42-.78M134,192.29l4.77-.64m19.1,17.2v-4.73l-19.1-12.47m19.1,17.2,5.23-.75m-24.33-16.45,5.57-.76m18.76,17.21v-4.65l-18.76-12.56m18.76,17.21,5.4-.78m-24.16-16.43,5.24-.71m18.92,17.14v-4.38l-18.92-12.76m18.92,17.14,5.07-.72m-24-16.42,4.39-.6m19.6,17v-4.68L154,189.58m19.6,17,5.41-.78m-25-16.24,5.92-.8m19.09,17v-4.57l-19.09-12.47m19.09,17,5.07-.73m-24.16-16.31,4.56-.62m19.6,16.93v-4.52l-19.6-12.41m19.6,16.93,10.47-1.5m-30.07-15.43,5.07-.69m19.93,16.65v-4.39l-19.93-12.26m0,0,4.05-.55m20.95,16.67v-4.37l-20.95-12.3m20.95,16.67,5.24-.75m-26.19-15.92,5.41-.71m20.78,16.63v-4.46L179,186.21m20.78,16.63,4.9-.71M179,186.21l6.59-.91m19.09,16.83v-4.26L185.61,185.3m19.09,16.83,5.58-.8m-24.67-16,3.88-.53m20.79,16.56V197l-20.79-12.25m20.79,16.56,4.9-.7m-25.69-15.86,6.09-.83m19.6,16.69v-4.45l-19.6-12.24m19.6,16.69,5.07-.73m-24.67-16,5.4-.73m19.27,16.69v-4.4L201,183.21m19.27,16.69,5.06-.73m-24.33-16,5.24-.71m19.09,16.67v-4.51L206.22,182.5m19.09,16.67,5.07-.73M206.22,182.5l5.24-.71m18.92,16.65V194l-18.92-12.19m18.92,16.65,4.9-.7m-23.82-16,4.73-.64m19.09,16.59v-4.43l-19.09-12.16m19.09,16.59,5-.72m-24.08-15.87,4.9-.67M240.27,197v-4.39l-19.18-12.15M240.27,197l10.39-1.49m-29.57-15.05,4.22-.57m20.11,16.27V192l-20.11-12.05m0,0,6.93-.94m18.42,16.56v-4.25L232.24,179m18.42,16.56,4.73-.68M232.24,179l4.9-.67m18.25,16.55V190.6l-18.25-12.3m18.25,16.55,10.14-1.45m-28.39-15.1,4.9-.66M260.46,194v-4.22L242,177.64m0,0,4.39-.6m19.1,16.36v-4.15L246.43,177m19.1,16.36,4.9-.7m-24-15.66,4.23-.57m19.77,16.23v-4.29l-19.77-11.94m19.77,16.23,5.07-.73m-24.84-15.5,5.74-.78M275.5,192v-4.41l-19.1-11.87M275.5,192l4.78-.69M256.4,175.69l4.9-.67m19,16.26v-4.39L261.3,175m19,16.26,4.85-.7M261.3,175l5.07-.68m18.76,16.24v-4.37l-18.76-11.87m18.76,16.24,4.73-.67m-23.49-15.57,5.41-.74m18.08,16.31v-4.37L271.78,173.6m18.08,16.31,5.07-.73M271.78,173.6l5.74-.78m17.41,16.36v-4.32l-17.41-12m17.41,16.36,4.73-.68m-22.14-15.68,4.73-.64m17.41,16.32v-4.32l-17.41-12m17.41,16.32,4.73-.68m-22.14-15.64,5.24-.71m16.9,16.35v-4.31l-16.9-12m16.9,16.35,4.9-.7m-21.8-15.65,5.58-.76m16.22,16.41V183l-16.22-12.29m16.22,16.41,4.9-.71m-21.12-15.7,4.9-.66m16.22,16.36v-4.25L298,170.05m16.22,16.36,4.73-.68M298,170.05l4.56-.62m16.39,16.3v-4.42l-16.39-11.88m16.39,16.3,4.73-.68m-21.12-15.62,5.74-.78m15.38,16.4V180.8l-15.38-12.15m15.38,16.4,4.73-.68m-20.11-15.72,5.92-.8m14.19,16.52v-4.58l-14.19-11.94m14.19,16.52,4.9-.7m-19.09-15.82,5.4-.74m13.69,16.56v-4.39l-13.69-12.17m13.69,16.56,4.66-.67m-18.35-15.89,4.73-.64M337.94,183v-4.22l-13.62-12.31M337.94,183l4.8-.69m-18.42-15.84,4.73-.64m13.69,16.48v-4l-13.69-12.44m13.69,16.48,4.56-.65m-18.25-15.83,4.9-.67m13.35,16.5v-4.4L334,165.16m13.35,16.5L352,181M334,165.16l3.38-.45M352,181v-4.57l-14.71-11.7"/></g></g></svg>