<svg xmlns="http://www.w3.org/2000/svg" viewBox="0 0 81.38 194.77"><defs><style>.cls-1{fill:#f37575;}.cls-2{fill:none;stroke:#000;}.cls-3{fill:#fed4ac;}.cls-4{fill:#91d5dd;}</style></defs><title>icon-7</title><g id="Layer_2" data-name="Layer 2"><g id="_7_icon" data-name="7 icon"><path id="hand" class="cls-1" d="M21.78,190.33l10.11,3.9c6.89-3,20.86-9.49,21.67-11.57,1-2.6-2.6-45.41-7.37-52.49,0-.53,0-1.62.44-1.74s4.33-3.61,3-8.82l6.21-14.89A3.84,3.84,0,0,1,58,103c-19.3,3.82-31.54.63-35.25-1.44l-1.88,10.7a12.51,12.51,0,0,0-2.31,9c.69,3.82,4.62,6.12,6.5,6.8v4.48H21.78v2.32L32.9,139c3-.15,9.1,0,9.1,1.73s.58,24.54.87,35.72l-9.39,10.13c-.39.33-1.82.66-4.48-.73a56.22,56.22,0,0,0-7.95-3.18V190Z"/><path id="Switcher-back" class="cls-1" d="M21.49,139c-.12,1.16-.34,12-.44,17.35l4.05-1.44,3.32,1.15v9.11l-3-1-4.34-.29c.35.35.15,9.5,0,14l11.85,4.77v-.72l.58-39.62Z"/><path id="bottom-micro" class="cls-1" d="M58,103c1.15-.29,10.55-2,12.14-14.75-.73-.29-2.14-1-2-1.73-9.15-2.22-28.52-6.6-29.9-6.94S31,78.35,28.28,78L4.15,73.48c-.67-.29-2.11-.52-2.46.87-.43,1.73-2.45,8.39,0,12.29s9.4,10.85,21.1,14.9C26.5,103.61,38.74,106.8,58,103Z"/><path id="_7_line" data-name="7 line" class="cls-1" d="M71.62,82.74c.35-1.39-1-2.22-1.73-2.46-13.78-6.36-48.31-12-63.86-14-.43.72-2.46-.87-3,1.59a1.58,1.58,0,0,0,.4,1.59c19.47,2.69,59.82,9.41,65.48,14.75a3.6,3.6,0,0,0,1.31-.09A1.88,1.88,0,0,0,71.62,82.74Z"/><path id="_6_line" data-name="6 line" class="cls-1" d="M70.61,77.39c.77-.15,2.34-.64,2.45-1.45s-.91-1.69-1.44-2C63,70.21,50.38,65.74,41.56,63.79A299.6,299.6,0,0,0,7.33,58.73c-1,0-2.95.15-3.18,1.3A1.65,1.65,0,0,0,5.6,62.2c11.47,0,28.7,3.55,34.8,5C46.71,68.59,69.16,75.65,70.61,77.39Z"/><path id="_5_line" data-name="5 line" class="cls-1" d="M74.65,68.85c0-.86-.14-2.17-1.59-2.31-6.35-4.92-25.28-9.65-32.66-10.85-9.09-1.48-22.48-3.32-31.77-4.19-.92,0-2.8.15-3,1.3a2.32,2.32,0,0,0,1.15,2.61c.32.21.71.11,1.16.28,5.92-.14,22.66,2,32.07,3.62,11.2,1.89,32.36,7.81,32.36,11,.28-.12.65.13,1-.09C74,69.81,74.65,69.3,74.65,68.85Z"/><path id="_4_line" data-name="4 line" class="cls-1" d="M73.79,63.79c.86-.43,2.6-.72,2.45-2.74a2.61,2.61,0,0,0-1.88-1.74c-1.5-1.39-15.6-7.85-32.37-10.7A266.25,266.25,0,0,0,10,44.74c-.86-.24-2.89,0-3.29,1.41-.57,2,1.4,2.51,2.31,2.46,7.63-.72,25.07,1.74,31.78,2.89C49.08,52.91,73.21,58.73,73.79,63.79Z"/><path id="_3_line" data-name="3 line" class="cls-1" d="M74.65,56.71a2.77,2.77,0,0,0,3-2.32A2.08,2.08,0,0,0,76,52.22c-1-1.59-13.06-6.9-25.57-10.37C40,39,20.52,37.28,11.09,37c-1,.05-2.89.64-2.89,2.6a1.88,1.88,0,0,0,1.15,1.67c3.76-.85,15.35-.7,32.64,2C61.79,46.37,75.52,54.1,74.65,56.71Z"/><path id="_2_line" data-name="2 line" class="cls-1" d="M78.84,47.89A3,3,0,0,0,77,44.74c-.58-1.39-19.23-9.11-29.49-11.13a194.85,194.85,0,0,0-34.38-3.95C12,29.47,9.7,29.66,9.35,32c-.15,1,1,1.14,1.74,1.63,1.78-1.25,13.39-1.54,31.77,2.17C65.83,40.4,76.4,46,76.4,49.08,77.27,49,78.76,48.84,78.84,47.89Z"/><path id="_1_line" data-name="1 line" class="cls-1" d="M77.69,41.31c.86,0,2,1.2,2.18-.76A2.2,2.2,0,0,0,78,37.91c-4-4.77-23.84-11-33.09-12.87-13.29-2.7-26.41-3.16-32.49-2.4a3.5,3.5,0,0,1-.59.08c-.72.68-1.62,1.78.11,3.51,2.36-1.39,15.14-2.05,28.06.44C52.55,29.09,77.35,35.92,77.69,41.31Z"/><path id="Top-micro" class="cls-1" d="M80.87,33.14C81,29.38,80.29,21.71,78,18v0C75.65,14.17,70.86,6.37,46.48,1.47,39.5.07,24.06-.88,18.16,6.53a26,26,0,0,0-5.05,12c6-1.16,18.33-1.69,34.38,2.5,8,1.69,25.9,7,33,14.75A6.79,6.79,0,0,0,80.87,33.14Z"/><path id="Stroke" class="cls-2" d="M58,103a3.84,3.84,0,0,0-2.17,1.74l-6.21,14.89c1.3,5.21-2.46,8.68-3,8.82s-.49,1.21-.44,1.74c4.77,7.08,8.38,49.89,7.37,52.49-.81,2.08-14.78,8.58-21.67,11.57l-10.11-3.9-.73-.29v-7.38M58,103c1.15-.29,10.55-2,12.14-14.75-.73-.29-2.14-1-2-1.73M58,103c-19.3,3.82-31.54.63-35.25-1.44m45.36-15a14.87,14.87,0,0,1,.72-2.32m-.72,2.32c-9.15-2.22-28.52-6.6-29.9-6.94S31,78.35,28.28,78L4.15,73.48m64.72,10.7a3.6,3.6,0,0,0,1.31-.09,1.88,1.88,0,0,0,1.44-1.35c.35-1.39-1-2.22-1.73-2.46m-1,3.9c-5.66-5.34-46-12.06-65.48-14.75m66.5,10.85.72-2.89m-.72,2.89c-13.78-6.36-48.31-12-63.86-14M70.61,77.39c.77-.15,2.34-.64,2.45-1.45s-.91-1.69-1.44-2m-1,3.47c-1.45-1.74-23.9-8.8-30.21-10.24-6.1-1.4-23.33-5-34.8-5m66,11.72.72-3.62m-.72,3.62C63,70.21,50.38,65.74,41.56,63.79A299.6,299.6,0,0,0,7.33,58.73m65,11.57c.28-.12.65.13,1-.09.66-.4,1.3-.91,1.3-1.36,0-.86-.14-2.17-1.59-2.31m-.72,3.76c0-3.18-21.16-9.1-32.36-11-9.41-1.59-26.15-3.76-32.07-3.62M73.06,66.54c0-.77,0-2.4.73-2.75m-.73,2.75c-6.35-4.92-25.28-9.65-32.66-10.85-9.09-1.48-22.48-3.32-31.77-4.19M73.79,63.79c.86-.43,2.6-.72,2.45-2.74a2.61,2.61,0,0,0-1.88-1.74m-.57,4.48c-.58-5.06-24.71-10.88-32.95-12.29-6.71-1.15-24.15-3.61-31.78-2.89m65.3,10.7.29-2.6m-.29,2.6c-1.5-1.39-15.6-7.85-32.37-10.7A266.25,266.25,0,0,0,10,44.74m64.61,12a2.77,2.77,0,0,0,3-2.32A2.08,2.08,0,0,0,76,52.22m-1.3,4.49C75.52,54.1,61.79,46.37,42,43.29c-17.29-2.68-28.88-2.83-32.64-2M76,52.22l.45-3.14M76,52.22c-1-1.59-13.06-6.9-25.57-10.37C40,39,20.52,37.28,11.09,37m65.31,12c.87-.1,2.36-.24,2.44-1.19A3,3,0,0,0,77,44.74m-.58,4.34c0-3.1-10.57-8.68-33.54-13.3-18.38-3.71-30-3.42-31.77-2.17M77,44.74l.71-3.43M77,44.74c-.58-1.39-19.23-9.11-29.49-11.13a194.85,194.85,0,0,0-34.38-3.95M77.69,41.31c.86,0,2,1.2,2.18-.76A2.2,2.2,0,0,0,78,37.91m-.29,3.4C77.35,35.92,52.55,29.09,40,26.67c-12.92-2.49-25.7-1.83-28.06-.44M78,37.91c-4-4.77-23.84-11-33.09-12.87-13.29-2.7-26.41-3.16-32.49-2.4M78,37.91c-.31-.47,0-1.56.3-1.56a7.59,7.59,0,0,0,2.17-.57M78,18c2.31,3.76,3,11.43,2.89,15.19a6.79,6.79,0,0,1-.42,2.64M78,18v0m0,0v0m-64.86.6a26,26,0,0,1,5.05-12C24.06-.88,39.5.07,46.48,1.47,70.86,6.37,75.65,14.17,78,17.93m-64.86.6c.53.34,1.56,1.21,1.44,2a2.44,2.44,0,0,1-2.15,2.09m.71-4.11c6-1.16,18.33-1.69,34.38,2.5,8,1.69,25.9,7,33,14.75M11.81,22.72c-.72.68-1.62,1.78.11,3.51m-.11-3.51a3.5,3.5,0,0,0,.59-.08m-.59.08.59-.08m-.48,3.59c1.16.15,2.92,1.58,1.19,3.43m0,0C12,29.47,9.7,29.66,9.35,32c-.15,1,1,1.14,1.74,1.63m0,3.43c-1,.05-2.89.64-2.89,2.6a1.88,1.88,0,0,0,1.15,1.67M11.09,37c2.6-1.58,1.38-2.54,0-3.43M10,44.74c-.86-.24-2.89,0-3.29,1.41-.57,2,1.4,2.51,2.31,2.46m1-3.87c1.76-2,.36-2.82-.69-3.43m-.29,7.3L8.63,51.5m0,0c-.92,0-2.8.15-3,1.3a2.32,2.32,0,0,0,1.15,2.61c.32.21.71.11,1.16.28m0,0-.58,3m0,0c-1,0-2.95.15-3.18,1.3A1.65,1.65,0,0,0,5.6,62.2m0,0c.86.15.86,3.33.43,4m0,0c-.43.72-2.46-.87-3,1.59a1.58,1.58,0,0,0,.4,1.59m.76,4c-.67-.29-2.11-.52-2.46.87-.43,1.73-2.45,8.39,0,12.29s9.4,10.85,21.1,14.9M4.15,73.48c1.29-2.77,0-3.24-.76-4m19.4,32.11-1.88,10.7a12.51,12.51,0,0,0-2.31,9c.69,3.82,4.62,6.12,6.5,6.8v4.48H21.78v2.32m0,0a5.13,5.13,0,0,1-2.17.57v1.31c.67.29,2,1.15,1.88,2.31m.29-4.19L32.9,139c3-.15,9.1,0,9.1,1.73s.58,24.54.87,35.72l-9.39,10.13c-.39.33-1.82.66-4.48-.73a56.22,56.22,0,0,0-7.95-3.18M21.49,139c-.12,1.16-.34,12-.44,17.35M21.49,139l12,3.33-.58,39.62v.72l-11.85-4.77m0-21.55a5.62,5.62,0,0,0,0,7.52m0-7.52,4.05-1.44,3.32,1.15v9.11l-3-1-4.34-.29m0,0c.35.35.15,9.5,0,14m0,0-1.3,2.17a2.13,2.13,0,0,0,1.3,2.6"/><path id="Button" class="cls-3" d="M21.05,156.34a5.62,5.62,0,0,0,0,7.52l4.34.29,3,1v-9.11L25.1,154.9Z"/><path id="_8-1_line" data-name="8-1 line" class="cls-3" d="M68.15,86.5a14.87,14.87,0,0,1,.72-2.32c-5.66-5.34-46-12.06-65.48-14.75.76.81,2.05,1.28.76,4L28.28,78c2.74.39,8.58,1.25,10,1.6S59,84.28,68.15,86.5Z"/><path id="_7-1_line" data-name="7-1 line" class="cls-3" d="M69.89,80.28l.72-2.89c-1.45-1.74-23.9-8.8-30.21-10.24-6.1-1.4-23.33-5-34.8-5,.86.15.86,3.33.43,4C21.58,68.28,56.11,73.92,69.89,80.28Z"/><path id="_6-1_line" data-name="6-1 line" class="cls-3" d="M7.91,55.69l-.58,3a299.6,299.6,0,0,1,34.23,5.06c8.82,1.95,21.4,6.42,30.06,10.13l.72-3.62c0-3.18-21.16-9.1-32.36-11C30.57,57.72,13.83,55.55,7.91,55.69Z"/><path id="_5-1_line" data-name="5-1 line" class="cls-3" d="M73.06,66.54c0-.77,0-2.4.73-2.75-.58-5.06-24.71-10.88-32.95-12.29-6.71-1.15-24.15-3.61-31.78-2.89L8.63,51.5c9.29.87,22.68,2.71,31.77,4.19C47.78,56.89,66.71,61.62,73.06,66.54Z"/><path id="_4-1_line" data-name="4-1 line" class="cls-3" d="M74.36,59.31l.29-2.6C75.52,54.1,61.79,46.37,42,43.29c-17.29-2.68-28.88-2.83-32.64-2h0c1.05.61,2.42,1.4.67,3.42a266.25,266.25,0,0,1,32,3.87C58.76,51.46,72.86,57.92,74.36,59.31Z"/><path id="_3-1_line" data-name="3-1 line" class="cls-3" d="M76,52.22l.45-3.14c0-3.1-10.57-8.68-33.54-13.3-18.38-3.71-30-3.42-31.77-2.17,1.38.89,2.6,1.85,0,3.43C20.52,37.28,40,39,50.38,41.85,62.89,45.32,74.94,50.63,76,52.22Z"/><path id="_2-1_line" data-name="2-1 line" class="cls-3" d="M77,44.74l.71-3.43C77.35,35.92,52.55,29.09,40,26.67c-12.92-2.49-25.7-1.83-28.06-.44,1.16.15,2.92,1.58,1.19,3.43a194.85,194.85,0,0,1,34.38,3.95C57.75,35.63,76.4,43.35,77,44.74Z"/><path id="_1-1_line" data-name="1-1 line" class="cls-3" d="M13.11,18.53c.53.34,1.56,1.21,1.44,2a2.44,2.44,0,0,1-2.15,2.09c6.08-.76,19.2-.3,32.49,2.4,9.25,1.88,29.05,8.1,33.09,12.87-.31-.47,0-1.56.3-1.56a7.59,7.59,0,0,0,2.17-.57C73.39,28,55.53,22.72,47.49,21,31.44,16.84,19.13,17.37,13.11,18.53Z"/><path id="back" class="cls-4" d="M21.78,134.8a5.13,5.13,0,0,1-2.17.57v1.31c.67.29,2,1.15,1.88,2.31l12,3.33-.58,39.62v.72l-11.85-4.77-1.3,2.17a2.13,2.13,0,0,0,1.3,2.6,56.22,56.22,0,0,1,8,3.18c2.66,1.39,4.09,1.06,4.48.73l9.39-10.13c-.29-11.18-.87-34-.87-35.72s-6.07-1.88-9.1-1.73Z"/></g></g></svg>