<svg xmlns="http://www.w3.org/2000/svg" viewBox="0 0 69.81 197.46"><defs><style>.cls-1,.cls-2{fill:#f37575;}.cls-1,.cls-2,.cls-3,.cls-4,.cls-5,.cls-6{stroke:#000;stroke-miterlimit:10;}.cls-1{fill-rule:evenodd;}.cls-3,.cls-6{fill:none;}.cls-4{fill:#91d5dd;}.cls-5{fill:#fed4ac;}.cls-6{stroke-width:0.5px;}</style></defs><title>icon-3</title><g id="Layer_2" data-name="Layer 2"><g id="_3_icon" data-name="3 icon"><path id="Body" class="cls-1" d="M65.35,154.57c-1.35-3.38,0-5.27.85-5.8l-1.48-1.9c-11.6,6.12-11.65-17-10.49-21.72.93-3.76,5.1-4,7.07-3.69l.42-1.79c-1.32-.74-2-4.12-1.43-5.65.47-1.22,2-9.12,2.75-12.91.42-16-15.36-22.22-23.31-23.31l1.9,49.83-15.08.26L28,78.54C8.94,81.81,7.83,91.14,6.15,94.68c-1.89,3.95,2.42,19.92,2.69,20.4s.68,3.06-.43,4.48c-.88,1.14-.36,1.53,0,1.58,10.44-1.58,7.81,16.24,4.8,22.78-2.4,5.23-7.19,4.39-9.28,3.32l-.68,1.58c2.82,1.56.86,7.65-.48,10.49a23.88,23.88,0,0,0,0,20.3c4.12-2.2,13.91-5.77,20.2-2.48s6.76,7.33,7.22,9.33A6.15,6.15,0,0,0,31.5,189c.53-3.74,1-12-1.31-15.28-2.11-3.17-2.6-8.42-2.58-10.65,6.41,1.72,11.7.72,13.55,0,.33,1.24.37,5-2.11,10.22-3.11,6.49-1.64,14.56-1.06,16.45.47,1.52-.19,2.31-.58,2.51a11,11,0,0,0,5.91-.77c1.31-1.16,4.53-.66,4.53,1.95,3.06-.15,13.39-3.42,19-12.18S67,158.79,65.35,154.57Zm-40.17-6.43,1.95-3.69.16-.27H31.4v.48l5.8-.21V144l4.22-.16,1.11,3.59c.16.55-.53.69-.9.69C31.55,149.61,26.46,148.75,25.18,148.14Zm.48-11.81c-.72-.43-.3-1.59,0-2.11,0-.58-.37-1.51-1.85-.58s-1.6,6-1.48,8.43c.32,4,0,12.19-4,13.29S13.09,153.57,13,152c.14-.87.79-2.42,2.27-1.58s.61,2.43,0,3.11c-.17,1.1,1.16,1.61,2.32.79,2.63-1.85,2.32-9.33,2.63-15.44.25-4.9,2.53-6.3,3.64-6.38a3,3,0,0,1,3.32,1.74C28,136.33,26.55,136.85,25.66,136.33Z"/><path id="Top-strings" class="cls-2" d="M30,30.88l0,.37a20.51,20.51,0,0,1,8.07.05c.13,0,.3-.65.37-.95h.58V28.3h-.74V26l5-.16c.21,0,.26.47.47.21s.26.53.63,0a.47.47,0,0,1,.74-.1c-.1.84.11,2.63,2.8,2.21a3.59,3.59,0,0,0,3.11-2.63c.52-3.38-1.22-4-2-4.43s-2.9.05-3.42.21-.57,1.42-.58,2.06l-.58-.06c-.13-.25-.41-.07-.53.06l-.58.05-5.11.16L38,19.12c1.48-.08,4.47-.21,4.64,0a.3.3,0,0,0,.48,0l1.26.06c0,.67.35.7.53.63a10,10,0,0,1,3.85-.63,1.17,1.17,0,0,0,1.47-.85c.11-.15-.1-2.9-1-2.37s-4-.21-4.38-.26-.49.09-.52.16v.73h-.53c-.09-.15-.3-.41-.42-.15s-.23.17-.27.1c-.21-.46-.37,0-.42.26h-4.8l-.49-2.47-.09-.42L34.41,14a19.64,19.64,0,0,0-3.32,0c1.05-.17,1,.61.84,1.16l-1.42,4.64a13.12,13.12,0,0,0-1.9.1c-.37.11-1.95,0-2.11.06s-.53-.58-.69-.27-.31-.37-.58.05a.43.43,0,0,1-.68.06c-.21-.8-.55-.76-.69-.64-.68.69-3.79.58-4.37.64s-.74,1-.85,1.84c-.08.68.78,1.3,1.22,1.53H23.7c.64,0,.76-.24.74-.37v-.42h.64c.29.46.58.19.68,0,.38.46.55.12.58-.1h.74c.59-.38,2.46-.2,3.32-.06-.07,1.87-.23,5.7-.32,6.12s-1.1.1-1.42.31a6.33,6.33,0,0,1-2.85-.05c-.15-.21-.47.05-.47,0s-.32-.11-.42,0-.46.05-.64,0c0-.84-.24-.91-.42-.89-1.21.07-3.78.11-4.37.15s-1.16,1.48-1.32,2.59c-.13.88.82,1.67,1.32,1.95.8.09,2.67.26,3.69.26A1.38,1.38,0,0,0,24.5,31.2h.42c.37.37.37-.05.58.05s.21-.21,1.37-.53a5.09,5.09,0,0,1,2.58.16Z"/><g id="top-controls"><path id="Middle-right" class="cls-2" d="M35.57,1.25c-.64.79-1.11-.47-1.64.11,0,4,.06,12.18.48,12.6l2.84-.05c-.21,0-.48-.05.11,0s.91-.55,1-.85C37.22,13.27,36,5.28,35.57,1.25Z"/><path id="Middle-left" class="cls-2" d="M31.09,12.11V14a19.64,19.64,0,0,1,3.32,0c-.42-.42-.5-8.58-.48-12.6-.52.58-1.1-.21-1.53.1s-.7,2.43-.84,3.48l-.47,7.12Z"/><path id="Second-right" class="cls-2" d="M36.57,4.63c-.12-1.39-.5-4-1-3.38.45,4,1.65,12,2.79,11.81V10.85h2.22c-.81-.47-1.6-2.94-1.9-4.12-.38-1.89-.83-2.19-1-2.1Z"/><path id="Right-control" class="cls-2" d="M41.05,6.73H38.68c.3,1.18,1.09,3.65,1.9,4.12.26,0,.15-.64.26-.58s.17-.16.21-.27Z"/><path id="Second-left" class="cls-2" d="M28.4,11.22a12.31,12.31,0,0,0,1.53,0c.95,0,1.17.51,1.16.84l.47-7.12h-.9c-.25,0-.77,1.34-1,2a6.28,6.28,0,0,1-1.78,3.74A1.3,1.3,0,0,0,28.4,11.22Z"/><path id="left-control" class="cls-2" d="M27.71,7.42V10a1.59,1.59,0,0,0,.17.74A6.28,6.28,0,0,0,29.66,7H28.4C27.81,7,27.69,7.26,27.71,7.42Z"/></g><path id="Stroke" class="cls-3" d="M47.85,193.42c3.06-.15,13.39-3.42,19-12.18s.21-22.45-1.48-26.67c-1.35-3.38,0-5.27.85-5.8l-1.48-1.9c-11.6,6.12-11.65-17-10.49-21.72.93-3.76,5.1-4,7.07-3.69l.42-1.79c-1.32-.74-2-4.12-1.43-5.65.47-1.22,2-9.12,2.75-12.91.42-16-15.36-22.22-23.31-23.31m8.12,115.62c.09,1-.92,3.1-5.64,3.27-5.91.21-34.32,3.11-40-16.29a2.65,2.65,0,0,1,.58-.79m45.08,13.81c0-2.61-3.22-3.11-4.53-1.95a11,11,0,0,1-5.91.77M2.77,179.61a23.88,23.88,0,0,1,0-20.3c1.34-2.84,3.3-8.93.48-10.49l.68-1.58c2.09,1.07,6.88,1.91,9.28-3.32,3-6.54,5.64-24.36-4.8-22.78-.36,0-.88-.44,0-1.58,1.11-1.42.69-4,.43-4.48S4.26,98.63,6.15,94.68C7.83,91.14,8.94,81.81,28,78.54M2.77,179.61c4.12-2.2,13.91-5.77,20.2-2.48s6.76,7.33,7.22,9.33A6.15,6.15,0,0,0,31.5,189M28,78.54l2-47.29M28,78.54l-1.48,49.35,15.08-.26L39.73,77.8M30.08,31.25l0-.37h-.58a5.09,5.09,0,0,0-2.58-.16c-1.16.32-1.16.64-1.37.53s-.21.32-.58-.05H24.5a1.38,1.38,0,0,1-1.32,1.42c-1,0-2.89-.17-3.69-.26-.5-.28-1.45-1.07-1.32-1.95.16-1.11.58-2.53,1.32-2.59s3.16-.08,4.37-.15c.18,0,.47,0,.42.89.18.05.55.13.64,0s.42-.16.42,0,.32-.16.47,0a6.33,6.33,0,0,0,2.85.05c.32-.21,1.32.22,1.42-.31s.25-4.25.32-6.12c-.86-.14-2.73-.32-3.32.06h-.74c0,.22-.2.56-.58.1-.1.19-.39.46-.68,0h-.64v.42c0,.13-.1.37-.74.37m6.38,8.12a20.51,20.51,0,0,1,8.07.05M23.7,23.13H19.86m3.84,0H19.86m0,0c-.44-.23-1.3-.85-1.22-1.53.11-.84.27-1.79.85-1.84s3.69,0,4.37-.64c.14-.12.48-.16.69.64a.43.43,0,0,0,.68-.06c.27-.42.43.27.58-.05s.53.32.69.27,1.74,0,2.11-.06a13.12,13.12,0,0,1,1.9-.1l1.42-4.64c.19-.55.21-1.33-.84-1.16m0,0V12.11m0,1.85a19.64,19.64,0,0,1,3.32,0m-3.32-1.85v0m0,0v0M27.71,10V7.42m0,2.53a1.59,1.59,0,0,0,.17.74M27.71,10V7.42m0,0c0-.16.1-.47.69-.47m0,0h1.26M28.4,7h1.26m0,0c.23-.67.75-2,1-2m-1,2a6.28,6.28,0,0,1-1.78,3.74m2.78-5.75h.9m-.9,0h.9m0,0c.14-1.05.51-3.22.84-3.48s1,.48,1.53-.1M31.56,4.94l-.47,7.12m2.84-10.7c.53-.58,1,.68,1.64-.11m-1.64.11c0,4,.06,12.18.48,12.6M35.57,1.25c.5-.63.88,2,1,3.38h1.11c.17-.09.62.21,1,2.1M35.57,1.25c.45,4,1.65,12,2.79,11.81m.32-6.33h2.37V10c0,.11-.13.31-.21.27s0,.58-.26.58m-1.9-4.12c.3,1.18,1.09,3.65,1.9,4.12m0,0H38.36m2.22,0H38.36m0,0v2.21m0,0c-.09.3-.41.89-1,.85s-.32,0-.11,0m0,0,.09.42.49,2.47h4.8c0-.28.21-.72.42-.26,0,.07.14.15.27-.1s.33,0,.42.15h.53v-.73c0-.07.19-.2.52-.16s3.43.79,4.38.26,1.16,2.22,1,2.37a1.17,1.17,0,0,1-1.47.85,10,10,0,0,0-3.85.63c-.18.07-.53,0-.53-.63l-1.26-.06a.3.3,0,0,1-.48,0c-.17-.21-3.16-.08-4.64,0l.27,4.49,5.11-.16L44,23.4c.12-.13.4-.31.53-.06l.58.06c0-.64.15-1.93.58-2.06s2.63-.63,3.42-.21,2.53,1.05,2,4.43A3.59,3.59,0,0,1,48,28.19c-2.69.42-2.9-1.37-2.8-2.21a.47.47,0,0,0-.74.1c-.37.48-.42-.31-.63,0s-.26-.21-.47-.21l-5,.16V28.3h.74v2.05h-.58c-.07.3-.24.91-.37.95m-.9-17.39L34.41,14M38.15,31.3c-.13.05,1,31,1.58,46.5M37.41,192.24c.39-.2,1.05-1,.58-2.51-.58-1.89-2.05-10,1.06-16.45,2.48-5.18,2.44-9,2.11-10.22-1.85.72-7.14,1.72-13.55,0,0,2.23.47,7.48,2.58,10.65C32.51,177,32,185.25,31.5,189m5.91,3.25A9.6,9.6,0,0,1,31.5,189M27.88,10.69a1.3,1.3,0,0,0,.52.53,12.31,12.31,0,0,0,1.53,0c.95,0,1.17.51,1.16.84m-4,132.39-1.95,3.69c1.28.61,6.37,1.47,16.45,0,.37,0,1.06-.14.9-.69l-1.11-3.59L37.2,144v.43l-5.8.21v-.48H27.29Zm-1.47-10.23c-.3.52-.72,1.68,0,2.11.89.52,2.31,0,1.47-2.11a3,3,0,0,0-3.32-1.74c-1.11.08-3.39,1.48-3.64,6.38-.31,6.11,0,13.59-2.63,15.44-1.16.82-2.49.31-2.32-.79.61-.68,1.47-2.26,0-3.11s-2.13.71-2.27,1.58c.14,1.59,1.41,4.48,5.38,3.38s4.32-9.32,4-13.29c-.12-2.42,0-7.51,1.48-8.43S25.66,133.64,25.66,134.22Z"/><path id="Left-sign" class="cls-4" d="M25.66,134.22c-.3.52-.72,1.68,0,2.11.89.52,2.31,0,1.47-2.11a3,3,0,0,0-3.32-1.74c-1.11.08-3.39,1.48-3.64,6.38-.31,6.11,0,13.59-2.63,15.44-1.16.82-2.49.31-2.32-.79.61-.68,1.47-2.26,0-3.11s-2.13.71-2.27,1.58c.14,1.59,1.41,4.48,5.38,3.38s4.32-9.32,4-13.29c-.12-2.42,0-7.51,1.48-8.43S25.66,133.64,25.66,134.22Z"/><path id="String-cover" class="cls-4" d="M27.13,144.45l-1.95,3.69c1.28.61,6.37,1.47,16.45,0,.37,0,1.06-.14.9-.69l-1.11-3.59L37.2,144v.43l-5.8.21v-.48H27.29Z"/><path id="Bottom-center" class="cls-4" d="M37.41,192.24c.39-.2,1.05-1,.58-2.51-.58-1.89-2.05-10,1.06-16.45,2.48-5.18,2.44-9,2.11-10.22-1.85.72-7.14,1.72-13.55,0,0,2.23.47,7.48,2.58,10.65C32.51,177,32,185.25,31.5,189A9.6,9.6,0,0,0,37.41,192.24Z"/><path id="Bottom-left" class="cls-4" d="M42.21,196.69c4.72-.17,5.73-2.25,5.64-3.27,0-2.61-3.22-3.11-4.53-1.95a11,11,0,0,1-5.91.77A9.6,9.6,0,0,1,31.5,189a6.15,6.15,0,0,1-1.31-2.53c-.46-2-.94-6-7.22-9.33s-16.08.28-20.2,2.48a2.65,2.65,0,0,0-.58.79C7.89,199.8,36.3,196.9,42.21,196.69Z"/><path id="Fingerboard" class="cls-5" d="M30.08,31.25,28,78.54l-1.48,49.35,15.08-.26L39.73,77.8C39.15,62.32,38,31.35,38.15,31.3A20.51,20.51,0,0,0,30.08,31.25Z"/><path id="Right-sign" class="cls-4" d="M42.2,134c-.84,2.1.58,2.63,1.48,2.1.63-.33.26-1.54,0-2.1,0-.58.37-1.51,1.85-.58s1.59,6,1.47,8.43c-.32,4,0,12.19,4,13.29s5.24-1.79,5.38-3.38c-.14-.88-.8-2.42-2.27-1.58s-.62,2.43,0,3.11c.17,1.1-1.16,1.61-2.32.79-2.64-1.85-2.32-9.33-2.64-15.44-.25-4.9-2.53-6.3-3.63-6.38A3.07,3.07,0,0,0,42.2,134Z"/><path id="Top-hole" class="cls-4" d="M36.62,30.93H31.56c0-10.75,1.53-15.6,1.69-15.44a14.15,14.15,0,0,0,2.74,0Z"/><path id="Strings" class="cls-6" d="M29.93,166.27,27.5,148.5,31.3,31m1.37,135.23-.79-17.77L33.14,31m2.53,135.23.58-17.77L34.88,31m4.06,135.23,1.64-17.77L36.41,31"/></g></g></svg>