<svg xmlns="http://www.w3.org/2000/svg" viewBox="0 0 152.96 133.62"><defs><style>.cls-1{fill:#fed4ac;}.cls-1,.cls-2,.cls-3,.cls-4,.cls-5{stroke:#000;stroke-miterlimit:10;}.cls-2{fill:none;}.cls-3{fill:#f37475;}.cls-4{fill:#91d5dd;}.cls-5{fill:#f37575;}</style></defs><title>icon-1</title><g id="Layer_2" data-name="Layer 2"><g id="_1_icon" data-name="1 icon"><g id="Left-part"><path class="cls-1" d="M28,61.68c5.19-7.83,19.32-25.36,34.33-32.81A58.92,58.92,0,0,0,43.91,7.94C27.57,14.54,12.81,34.13,7.47,43.1,12.64,51.64,20.22,57.55,28,61.68Z"/><path id="Left-hand" class="cls-1" d="M92.26,83.24C74.56,69.92,73.47,61.85,72.37,60.62A49.11,49.11,0,0,0,66.72,65C63,68.34,59.85,72.18,60,73c8.21,4.47,15.11,13.08,19,18.06,9.49,13.32,42,43.79,46.15,42a10.58,10.58,0,0,0,5.48-6.38C123.7,116.62,106.41,93.89,92.26,83.24Z"/><path id="Left-stroke" class="cls-2" d="M72.37,60.62C70.91,59,66.29,42,64.35,34a22.44,22.44,0,0,0-2-5.11m10,31.75c1.1,1.23,2.19,9.3,19.89,22.62,14.15,10.65,31.44,33.38,38.31,43.42a10.58,10.58,0,0,1-5.48,6.38c-4.19,1.83-36.66-28.64-46.15-42C75.08,86.1,68.18,77.49,60,73m12.4-12.4A49.11,49.11,0,0,0,66.72,65C63,68.34,59.85,72.18,60,73m0,0a25,25,0,0,0-6.39-2.55C47.33,69.12,37.52,66.7,28,61.68m0,0c5.19-7.83,19.32-25.36,34.33-32.81M28,61.68c-7.82-4.13-15.4-10-20.57-18.58m54.9-14.23A58.92,58.92,0,0,0,43.91,7.94M7.47,43.1C3.18,36-.28,27.59.65,16.37c.6-7.11,11.74-19.13,28.67-15A44,44,0,0,1,43.91,7.94M7.47,43.1c5.34-9,20.1-28.56,36.44-35.16"/><path id="Left-red" class="cls-3" d="M29.32,1.33C12.39-2.76,1.25,9.26.65,16.37-.28,27.59,3.18,36,7.47,43.1c5.34-9,20.1-28.56,36.44-35.16A44,44,0,0,0,29.32,1.33Z"/><path id="Left-green" class="cls-4" d="M72.37,60.62C70.91,59,66.29,42,64.35,34a22.44,22.44,0,0,0-2-5.11c-15,7.45-29.14,25-34.33,32.81,9.48,5,19.29,7.44,25.54,8.79A25,25,0,0,1,60,73c-.12-.84,3-4.68,6.75-8A49.11,49.11,0,0,1,72.37,60.62Z"/></g><g id="right-part"><path id="Right-middle" class="cls-1" d="M124.92,61.68c-5.19-7.83-19.33-25.36-34.33-32.81A58.92,58.92,0,0,1,109.05,7.94c16.34,6.6,31.1,26.19,36.44,35.16C140.32,51.64,132.73,57.55,124.92,61.68Z"/><path id="Right-hand" class="cls-1" d="M60.7,83.24C78.4,69.92,79.49,61.85,80.59,60.62A49.11,49.11,0,0,1,86.24,65C90,68.34,93.11,72.18,93,73,84.78,77.49,77.88,86.1,74,91.08c-9.49,13.32-42,43.79-46.16,42a10.6,10.6,0,0,1-5.47-6.38C29.26,116.62,46.55,93.89,60.7,83.24Z"/><path id="Right-background" class="cls-2" d="M80.59,60.62C82.05,59,86.67,42,88.61,34a22,22,0,0,1,2-5.11m-10,31.75c-1.1,1.23-2.19,9.3-19.89,22.62-14.15,10.65-31.44,33.38-38.31,43.42A10.6,10.6,0,0,0,27.86,133c4.2,1.83,36.67-28.64,46.16-42,3.86-5,10.76-13.59,19-18.06m-12.4-12.4A49.11,49.11,0,0,1,86.24,65C90,68.34,93.11,72.18,93,73m0,0a25,25,0,0,1,6.39-2.55c6.25-1.35,16.06-3.77,25.54-8.79m0,0c-5.19-7.83-19.33-25.36-34.33-32.81m34.33,32.81c7.81-4.13,15.4-10,20.57-18.58M90.59,28.87A58.92,58.92,0,0,1,109.05,7.94M145.49,43.1c4.29-7.08,7.75-15.51,6.82-26.73-.6-7.11-11.74-19.13-28.67-15a44,44,0,0,0-14.59,6.61M145.49,43.1c-5.34-9-20.1-28.56-36.44-35.16"/><path id="Right-red" class="cls-5" d="M123.64,1.33c16.93-4.09,28.07,7.93,28.67,15,.93,11.22-2.53,19.65-6.82,26.73-5.34-9-20.1-28.56-36.44-35.16A44,44,0,0,1,123.64,1.33Z"/><path id="Right-green" class="cls-4" d="M80.59,60.62C82.05,59,86.67,42,88.61,34a22,22,0,0,1,2-5.11c15,7.45,29.14,25,34.33,32.81-9.48,5-19.29,7.44-25.54,8.79A25,25,0,0,0,93,73c.12-.84-3-4.68-6.75-8A49.11,49.11,0,0,0,80.59,60.62Z"/></g></g></g></svg>