<svg xmlns="http://www.w3.org/2000/svg" viewBox="0 0 551.09 125.57"><defs><style>.cls-1{fill:#91d5dd;}.cls-2{fill:#f37575;}</style></defs><title>Asset 1</title><g id="Layer_2" data-name="Layer 2"><g id="logo"><path class="cls-1" d="M366.91,106.17c11.86-15.86,25.52-13.88,30.89-10.89a.32.32,0,0,0,.51-.26V4.19a3.12,3.12,0,0,1,.21-1.1,1.43,1.43,0,0,1,.91-.82,2,2,0,0,1,2.76,1.66C402.71,14.1,405,20.27,418,33.65S431,54.88,431.66,63s-7.89,29.2-10.34,30.49c-2,1-1.9-.51-1.55-1.29,7.57-14.37,8.28-24.52,7.67-28.06a4,4,0,0,1-.06-.5c-.9-20-16.81-25.35-21.57-27.53-3.47-1.59-4.22-.41-4.18.59,0,.21,0,.4,0,.61.05,20.86.11,62.55,0,64.8a55.19,55.19,0,0,1-1.81,9.14c-1.64,5.53-11.65,14.41-24.68,12.35-12.87-2-11.08-12.09-8.5-17A2.06,2.06,0,0,1,366.91,106.17Z"/><path class="cls-2" d="M20.82,1.68l40,99.72,40-99.72h20.9V123.89H105.51V76.3L107,24.93l-40.12,99H54.56l-40-98.71,1.6,51.12v47.59H0V1.68Z"/><path class="cls-2" d="M236.12,1.68v83.1q-.09,17.28-10.91,28.28T196,125.4l-4.29.17q-20.06,0-32-10.83T147.65,85V1.68H163.6V84.44q0,13.26,7.3,20.65t20.81,7.3q13.69,0,20.91-7.3t7.3-20.56V1.68Z"/><path class="cls-2" d="M297.56,69.42q-20.73-6-30.22-14.61a28.19,28.19,0,0,1-9.4-21.49q0-14.43,11.5-23.84T299.49,0A49.73,49.73,0,0,1,321.9,4.87,36.48,36.48,0,0,1,337.18,18.3,34.14,34.14,0,0,1,342.64,37H326.43q0-11.09-7.05-17.38t-19.89-6.38q-11.92,0-18.63,5.29t-6.63,14.52q0,7.47,6.29,12.68t21.57,9.4q15.29,4.27,23.84,9.48t12.76,12a30.44,30.44,0,0,1,4.2,16.2q0,14.85-11.59,23.83t-31,8.9a57.85,57.85,0,0,1-23.5-4.78q-10.92-4.87-16.87-13.27a32.37,32.37,0,0,1-5.88-19h16.2q0,11.09,8.14,17.54t21.91,6.38q12.76,0,19.56-5.2A16.92,16.92,0,0,0,326.69,93q0-9-6.3-13.85T297.56,69.42Z"/><path class="cls-2" d="M551.09,85.11q-2.26,19.4-14.35,30t-32,10.49Q483.1,125.57,470,110T457,68.49V56.74q0-17,6-30A45.43,45.43,0,0,1,480.33,7q11.16-7,25.85-7,19.48,0,31.23,10.91T551.09,41h-16.2q-2.1-14.61-9.15-21.15t-19.56-6.55q-15.44,0-24.25,11.42T473.2,57.16V69q0,19.89,8.31,31.64t23.25,11.75q13.43,0,20.56-6t9.57-21.24Z"/></g></g></svg>